<svg width="202" height="202" viewBox="0 0 202 202" fill="none" xmlns="http://www.w3.org/2000/svg">
<g clip-path="url(#clip0_530_7894)">
<path d="M202 0H0V202H202V0Z" fill="white"/>
<path d="M36.1885 115.48C36.085 115.341 35.984 115.2 35.8798 115.061C34.7058 113.501 33.4598 111.995 32.1452 110.553C32.1779 107.646 32.1085 96.6557 29.1633 97.2213C26.444 97.7436 29.9935 106.446 31.5077 109.876C30.934 109.265 30.349 108.665 29.7499 108.08C27.763 105.501 21.0825 97.1946 19.1243 99.4433C17.3099 101.527 25.2498 106.124 28.7391 108.001C29.3871 108.619 30.0238 109.25 30.6423 109.896C27.2794 108.217 18.8952 104.336 18.1499 106.988C17.3419 109.864 28.3048 110.472 31.2835 110.584C32.8304 112.253 34.2836 114.009 35.6414 115.837C32.6296 113.929 24.2935 108.948 23.2677 111.578C22.1688 114.395 33.3108 116.081 36.0992 116.456C37.5649 118.479 38.9151 120.586 40.1529 122.757C37.2736 120.317 30.0808 114.583 28.7294 116.976C27.2621 119.575 37.7426 122.769 40.622 123.59C40.8215 123.951 41.0207 124.311 41.2142 124.675C42.1951 126.523 43.1013 128.414 43.9348 130.338C41.3249 127.78 34.3567 121.319 32.8167 123.649C31.1639 126.15 41.4978 130.094 44.2571 131.093C45.4914 134.025 46.5422 137.035 47.3958 140.095C45.1661 137.192 39.1825 129.832 37.3322 131.922C35.3449 134.166 45.0255 139.521 47.6184 140.897C47.6528 141.027 47.6919 141.155 47.7255 141.284C47.999 142.333 48.2652 143.392 48.4511 144.461C48.5222 144.87 49.1597 144.772 49.0886 144.362C48.9035 143.299 48.6652 142.241 48.3945 141.19C49.7172 138.53 54.383 128.7 51.4997 127.93C48.8761 127.229 48.2519 136.234 48.1048 140.116C47.6132 138.366 47.0367 136.637 46.4339 134.943C46.002 133.73 45.5394 132.527 45.0498 131.334C45.9596 128.603 49.268 118.071 46.2844 117.711C43.561 117.381 44.2466 126.568 44.6442 130.365C43.6899 128.125 42.6327 125.927 41.4695 123.787C42.1862 121.001 44.7504 110.262 41.7487 110.111C38.9797 109.971 40.3642 119.287 41.0183 122.97C39.7509 120.706 38.3648 118.509 36.8567 116.4C37.1843 113.369 38.1357 102.665 35.1825 102.937C32.4955 103.182 34.9765 111.749 36.1885 115.48Z" fill="#EB725F"/>
<path d="M175.51 97.774C175.583 97.6168 175.659 97.4605 175.731 97.3025C176.54 95.5257 177.267 93.7117 177.906 91.8679C180.475 90.508 190.097 85.1954 188.193 82.8789C186.435 80.7393 180.486 88.0157 178.197 90.9847C178.459 90.1889 178.707 89.3885 178.935 88.5821C180.251 85.6047 184.356 75.7673 181.445 75.1217C178.748 74.5234 178.503 83.695 178.522 87.6566C178.288 88.5215 178.039 89.3817 177.766 90.2345C177.635 86.4777 177.038 77.258 174.352 77.8705C171.44 78.5347 176.143 88.4557 177.469 91.1261C176.742 93.2827 175.894 95.3976 174.936 97.4641C175.173 93.9065 175.566 84.2036 172.765 84.5591C169.765 84.9401 173.608 95.533 174.61 98.1622C173.534 100.416 172.328 102.609 171.012 104.734C171.78 101.038 173.381 91.9802 170.632 91.9366C167.648 91.8889 169.85 102.622 170.504 105.544C170.283 105.891 170.061 106.239 169.834 106.582C168.68 108.327 167.451 110.026 166.16 111.678C167.16 108.164 169.506 98.9548 166.723 98.7153C163.737 98.4579 165.21 109.42 165.651 112.322C163.664 114.807 161.522 117.168 159.242 119.38C160.727 116.034 164.333 107.261 161.614 106.634C158.693 105.961 158.614 117.023 158.644 119.959C158.547 120.051 158.453 120.146 158.355 120.238C157.565 120.979 156.762 121.719 155.911 122.393C155.586 122.651 155.977 123.164 156.303 122.906C157.148 122.235 157.963 121.521 158.757 120.781C161.726 120.671 172.591 120.074 171.89 117.173C171.252 114.533 163.043 118.287 159.562 120.013C160.865 118.745 162.108 117.413 163.308 116.074C164.168 115.115 165.004 114.133 165.818 113.133C168.651 112.628 179.484 110.502 178.375 107.709C177.363 105.159 169.62 110.151 166.474 112.314C167.987 110.406 169.412 108.427 170.736 106.383C173.527 105.681 184.185 102.803 182.885 100.093C181.684 97.5942 174.162 103.261 171.24 105.595C172.623 103.4 173.89 101.133 175.023 98.8005C177.842 97.6406 187.7 93.3619 186.05 90.8975C184.549 88.6541 178.208 94.927 175.51 97.774Z" fill="#EB725F"/>
<path d="M57.6117 106.202C57.6117 106.202 58.6718 103.948 59.2128 100.972C59.1223 100.039 58.993 99.1324 58.8213 98.2545C58.675 97.4869 58.4924 96.744 58.2928 96.0131C57.758 96.9286 57.0865 97.8837 56.3367 98.5018C56.3367 98.5018 57.177 96.7169 57.7438 94.2275C57.1625 92.5436 56.4381 90.9583 55.5881 89.459C55.3138 90.362 54.9485 91.2791 54.4674 91.9671C54.4674 91.9671 54.7647 90.3402 54.7671 88.0984C54.6039 87.843 54.4435 87.5857 54.273 87.3352C53.3253 85.9539 52.2575 84.6547 51.0685 83.439C50.972 84.4628 50.7789 85.5479 50.4064 86.3903C50.4064 86.3903 50.4031 84.6684 49.985 82.3895C48.7811 81.2845 47.4584 80.2612 45.9971 79.3328C46.0387 80.3202 45.9995 81.3605 45.7705 82.2089C45.7705 82.2089 45.5442 80.6842 44.9015 78.6605C43.5969 77.9063 42.1813 77.2284 40.6429 76.6349C40.8182 77.4526 40.9301 78.2917 40.8901 79.0282C40.8901 79.0282 40.4676 77.8533 39.6406 76.2656C38.5284 75.8794 37.3414 75.5449 36.0749 75.2653C34.7865 74.9805 33.4258 74.7458 31.8373 74.667C31.3416 76.1784 31.0738 77.533 30.8782 78.8379C30.6859 80.1206 30.5732 81.3487 30.5356 82.5256C31.7222 83.8665 32.6675 84.6817 32.6675 84.6817C31.9654 84.4555 31.222 84.0503 30.5215 83.5938C30.5251 85.2425 30.6508 86.8072 30.8883 88.2951C32.5471 89.6202 33.89 90.3773 33.89 90.3773C33.0158 90.2872 32.0304 89.9515 31.1234 89.5588C31.4668 91.2556 31.9488 92.8571 32.5496 94.3769C34.5275 95.5833 36.1339 96.203 36.1339 96.203C35.2143 96.2491 34.132 96.0406 33.1414 95.7643C33.8508 97.3096 34.6815 98.7717 35.6317 100.151C35.8046 100.4 35.9872 100.642 36.1674 100.886C38.2613 101.687 39.887 101.992 39.887 101.992C39.0721 102.195 38.0852 102.207 37.1439 102.14C38.2391 103.47 39.46 104.714 40.8239 105.86C43.3513 106.223 45.3184 106.077 45.3184 106.077C44.4724 106.556 43.3404 106.841 42.294 107.012C42.9049 107.461 43.5327 107.897 44.1973 108.308C44.9556 108.783 45.7555 109.228 46.5946 109.647C49.5664 110.207 52.0515 110.025 52.0515 110.025C51.3121 110.444 50.3538 110.713 49.4259 110.89C49.6901 110.991 49.9571 111.09 50.2282 111.186C51.3558 111.581 52.5581 111.925 53.844 112.212C55.1295 112.498 56.4854 112.737 58.0674 112.82C58.5567 111.313 58.8197 109.961 59.012 108.658C59.2051 107.355 59.3146 106.11 59.3493 104.915C59.3566 104.627 59.3602 104.342 59.3606 104.06C58.8625 104.864 58.2674 105.662 57.6117 106.202Z" fill="#6E7FDD"/>
<mask id="mask0_530_7894" style="mask-type:luminance" maskUnits="userSpaceOnUse" x="30" y="74" width="30" height="39">
<path d="M57.6088 106.201C57.6088 106.201 58.6689 103.947 59.2098 100.971C59.1193 100.038 58.99 99.1314 58.8183 98.2536C58.6721 97.486 58.4895 96.743 58.2899 96.0122C57.755 96.9276 57.0836 97.8827 56.3338 98.5008C56.3338 98.5008 57.1741 96.7159 57.7409 94.2265C57.1595 92.5426 56.4352 90.9573 55.5851 89.4581C55.3108 90.361 54.9456 91.2781 54.4644 91.9661C54.4644 91.9661 54.7618 90.3392 54.7642 88.0974C54.601 87.8421 54.4406 87.5847 54.2701 87.3342C53.3223 85.953 52.2546 84.6537 51.0656 83.4381C50.969 84.4618 50.7759 85.547 50.4034 86.3893C50.4034 86.3893 50.4002 84.6674 49.9821 82.3885C48.7781 81.2835 47.4554 80.2602 45.9942 79.3318C46.0358 80.3192 45.9966 81.3595 45.7675 82.2079C45.7675 82.2079 45.5413 80.6832 44.8985 78.6596C43.594 77.9053 42.1784 77.2274 40.64 76.6339C40.8153 77.4516 40.9272 78.2907 40.8872 79.0272C40.8872 79.0272 40.4646 77.8524 39.6376 76.2646C38.5254 75.8784 37.3385 75.5439 36.0719 75.2643C34.7836 74.9795 33.4229 74.7448 31.8344 74.666C31.3387 76.1774 31.0708 77.532 30.8753 78.8369C30.683 80.1196 30.5703 81.3478 30.5327 82.5246C31.7192 83.8655 32.6646 84.6808 32.6646 84.6808C31.9624 84.4545 31.2191 84.0493 30.5186 83.5928C30.5222 85.2415 30.6478 86.8062 30.8854 88.2941C32.5442 89.6193 33.8871 90.3764 33.8871 90.3764C33.0128 90.2863 32.0275 89.9505 31.1205 89.5579C31.4639 91.2547 31.9459 92.8561 32.5466 94.376C34.5246 95.5823 36.1309 96.202 36.1309 96.202C35.2114 96.2481 34.1291 96.0396 33.1385 95.7633C33.8479 97.3086 34.6785 98.7707 35.6288 100.15C35.8017 100.399 35.9843 100.641 36.1645 100.885C38.2584 101.686 39.8841 101.991 39.8841 101.991C39.0692 102.194 38.0822 102.206 37.1409 102.139C38.2362 103.469 39.4571 104.714 40.821 105.859C43.3484 106.222 45.3155 106.076 45.3155 106.076C44.4695 106.555 43.3375 106.84 42.2911 107.011C42.902 107.46 43.5298 107.896 44.1944 108.307C44.9527 108.782 45.7526 109.227 46.5917 109.646C49.5635 110.206 52.0485 110.024 52.0485 110.024C51.3092 110.443 50.3509 110.713 49.4229 110.889C49.6871 110.99 49.9542 111.089 50.2253 111.185C51.3528 111.58 52.5551 111.924 53.8411 112.211C55.1266 112.497 56.4824 112.736 58.0645 112.819C58.5537 111.312 58.8167 109.96 59.009 108.657C59.2022 107.354 59.3116 106.109 59.3464 104.914C59.3537 104.626 59.3573 104.341 59.3577 104.059C58.8596 104.863 58.2645 105.661 57.6088 106.201Z" fill="white"/>
</mask>
<g mask="url(#mask0_530_7894)">
<path d="M53.6199 84.0731L53.2062 84.0259C53.203 84.0986 52.8527 91.2607 48.0807 97.9392L44.496 92.7252C49.4094 85.8915 48.7962 77.1102 48.7893 77.0217L48.3768 77.0262C48.3833 77.113 48.9776 85.6463 44.235 92.3458L41.0458 87.7071C45.9399 80.8234 41.3109 71.1152 41.2632 71.0175L40.8955 71.1859C40.9416 71.2813 45.403 80.6504 40.7836 87.3261L37.3642 82.3525C39.1624 75.516 34.497 66.8955 34.4493 66.8086L34.0918 66.9977C34.1374 67.0813 38.5669 75.2728 37.0434 81.8863L29.9997 71.6408L29.6668 71.8695L36.7105 82.1149C29.9904 81.1692 23.928 74.1004 23.8661 74.0277L23.5615 74.2935C23.6254 74.3691 30.0037 81.8119 37.0309 82.5812L40.4503 87.5548C32.5635 89.477 25.4131 81.9566 25.3403 81.8798L25.0515 82.1626C25.1258 82.2422 32.5327 90.0402 40.7125 87.9362L43.9017 92.5749C35.9534 94.6026 28.1934 90.9932 28.115 90.9561L27.9631 91.3399C28.0431 91.3783 36.0229 95.0951 44.1627 92.9543L47.7474 98.1683C39.8088 100.231 32.9901 97.995 32.921 97.9719L32.8172 98.3751C32.8871 98.3986 39.892 100.701 48.008 98.5472L50.7047 102.47C42.7697 104.568 36.8867 103.706 36.8277 103.697L36.7937 104.117C36.8539 104.126 42.8784 105.013 50.9644 102.848L53.9056 107.126C47.2569 108.875 42.331 108.158 42.2813 108.15L42.2477 108.57C42.2986 108.579 47.3656 109.322 54.1661 107.505L56.6168 111.069C52.4419 112.181 49.3735 111.773 49.3424 111.769L49.3133 112.19C49.445 112.208 52.5538 112.626 56.8766 111.447L61.6523 118.393L61.9852 118.165L57.2095 111.219C59.8581 107.605 60.5813 104.552 60.6107 104.423L60.2072 104.299C60.1999 104.33 59.4828 107.341 56.9493 110.841L54.4986 107.276C58.6303 101.577 59.751 96.5798 59.7615 96.5293L59.3571 96.4101C59.3466 96.4594 58.2526 101.315 54.238 106.897L51.2969 102.619C56.214 95.8441 57.5432 89.9016 57.5561 89.8418L57.1517 89.7231C57.1388 89.7812 55.8375 95.5831 51.0368 102.241L48.3401 98.3182C53.2579 91.5116 53.6171 84.1471 53.6199 84.0731Z" fill="#B3C9F9"/>
</g>
<path opacity="0.1" d="M54.7687 88.1003C54.6055 87.845 54.4451 87.5877 54.2746 87.3372C53.3268 85.9559 52.259 84.6566 51.0701 83.441C50.9735 84.4647 50.7804 85.5499 50.4079 86.3922C50.4079 86.3922 50.4047 84.6704 49.9865 82.3914C48.7826 81.2865 47.4599 80.2631 45.9987 79.3347C46.0403 80.3221 46.0011 81.3624 45.772 82.2108C45.772 82.2108 45.5458 80.6861 44.903 78.6625C43.5985 77.9082 42.1829 77.2303 40.6445 76.6368C40.8198 77.4545 40.9317 78.2936 40.8917 79.0301C40.8917 79.0301 40.4691 77.8553 39.6421 76.2676C38.5299 75.8813 37.343 75.5468 36.0764 75.2673C34.7881 74.9825 33.4274 74.7477 31.8389 74.6689L58.069 112.821C58.5582 111.315 58.8212 109.963 59.0135 108.66C59.2066 107.357 59.3161 106.111 59.3509 104.917C59.3581 104.629 59.3618 104.344 59.3622 104.062C58.8648 104.865 58.2698 105.663 57.6145 106.204C57.6145 106.204 58.6746 103.949 59.2155 100.973C59.125 100.04 58.9957 99.1336 58.824 98.2557C58.6778 97.4881 58.4952 96.7451 58.2956 96.0143C57.7607 96.9298 57.0893 97.8848 56.3394 98.5029C56.3394 98.5029 57.1798 96.7181 57.7466 94.2286C57.1652 92.5447 56.4409 90.9594 55.5908 89.4602C55.3165 90.3631 54.9513 91.2802 54.4701 91.9682C54.4689 91.969 54.7663 90.3417 54.7687 88.1003Z" fill="#0046A0"/>
<path d="M167.479 141.477C167.479 141.477 169.966 141.637 172.933 141.051C173.768 140.625 174.564 140.172 175.318 139.691C175.979 139.274 176.603 138.832 177.209 138.378C176.161 138.216 175.027 137.941 174.177 137.469C174.177 137.469 176.146 137.597 178.67 137.212C180.023 136.055 181.233 134.8 182.317 133.46C181.376 133.535 180.389 133.532 179.572 133.336C179.572 133.336 181.195 133.016 183.282 132.197C183.46 131.952 183.64 131.708 183.811 131.458C184.749 130.07 185.567 128.6 186.262 127.049C185.274 127.334 184.194 127.552 183.274 127.514C183.274 127.514 184.874 126.881 186.842 125.656C187.429 124.131 187.897 122.525 188.225 120.826C187.321 121.227 186.339 121.571 185.466 121.669C185.466 121.669 186.802 120.9 188.449 119.56C188.673 118.07 188.785 116.504 188.774 114.856C188.077 115.318 187.338 115.73 186.638 115.962C186.638 115.962 187.576 115.139 188.75 113.787C188.702 112.611 188.578 111.384 188.374 110.103C188.167 108.8 187.887 107.447 187.378 105.94C185.79 106.033 184.432 106.28 183.146 106.576C181.882 106.868 180.698 107.213 179.589 107.609C178.776 109.204 178.364 110.382 178.364 110.382C178.318 109.646 178.422 108.806 178.59 107.987C177.057 108.594 175.647 109.284 174.349 110.05C173.724 112.08 173.512 113.606 173.512 113.606C173.276 112.76 173.227 111.72 173.26 110.732C171.807 111.673 170.493 112.708 169.299 113.824C168.902 116.107 168.914 117.828 168.914 117.828C168.534 116.989 168.331 115.906 168.225 114.883C167.047 116.109 165.991 117.418 165.056 118.807C164.887 119.06 164.729 119.318 164.569 119.575C164.591 121.816 164.903 123.441 164.903 123.441C164.415 122.757 164.042 121.843 163.76 120.943C162.923 122.449 162.213 124.041 161.646 125.73C162.235 128.215 163.092 129.992 163.092 129.992C162.336 129.381 161.656 128.432 161.113 127.521C160.92 128.253 160.744 128.998 160.605 129.767C160.441 130.646 160.319 131.554 160.237 132.488C160.805 135.458 161.885 137.703 161.885 137.703C161.225 137.169 160.622 136.376 160.118 135.577C160.121 135.86 160.127 136.145 160.137 136.432C160.182 137.626 160.303 138.87 160.508 140.172C160.712 141.473 160.987 142.822 161.489 144.324C163.071 144.228 164.424 143.977 165.707 143.679C166.991 143.381 168.19 143.026 169.314 142.621C169.584 142.523 169.85 142.422 170.114 142.318C169.183 142.151 168.222 141.89 167.479 141.477Z" fill="#6E7FDD"/>
<mask id="mask1_530_7894" style="mask-type:luminance" maskUnits="userSpaceOnUse" x="160" y="105" width="29" height="40">
<path d="M167.478 141.478C167.478 141.478 169.965 141.638 172.932 141.052C173.767 140.626 174.563 140.173 175.317 139.692C175.978 139.275 176.602 138.833 177.208 138.379C176.16 138.217 175.026 137.942 174.176 137.47C174.176 137.47 176.145 137.598 178.669 137.213C180.022 136.056 181.232 134.801 182.316 133.461C181.375 133.536 180.388 133.533 179.571 133.337C179.571 133.337 181.194 133.017 183.281 132.198C183.459 131.953 183.639 131.709 183.81 131.459C184.748 130.071 185.566 128.601 186.261 127.05C185.273 127.335 184.193 127.553 183.273 127.515C183.273 127.515 184.873 126.882 186.841 125.657C187.428 124.132 187.896 122.526 188.224 120.827C187.321 121.228 186.338 121.572 185.465 121.67C185.465 121.67 186.801 120.901 188.448 119.561C188.672 118.071 188.784 116.505 188.773 114.856C188.076 115.319 187.337 115.731 186.637 115.963C186.637 115.963 187.575 115.14 188.749 113.788C188.701 112.612 188.577 111.385 188.373 110.104C188.166 108.801 187.886 107.448 187.377 105.941C185.789 106.034 184.431 106.281 183.145 106.577C181.881 106.869 180.697 107.214 179.588 107.61C178.775 109.205 178.363 110.383 178.363 110.383C178.317 109.647 178.421 108.807 178.589 107.988C177.056 108.595 175.646 109.285 174.348 110.051C173.723 112.081 173.511 113.607 173.511 113.607C173.275 112.761 173.226 111.721 173.259 110.733C171.806 111.674 170.492 112.709 169.298 113.825C168.901 116.108 168.913 117.829 168.913 117.829C168.533 116.99 168.33 115.907 168.224 114.884C167.046 116.11 165.99 117.419 165.055 118.808C164.886 119.06 164.728 119.319 164.568 119.576C164.59 121.817 164.902 123.442 164.902 123.442C164.414 122.758 164.041 121.844 163.759 120.944C162.922 122.45 162.212 124.042 161.646 125.731C162.234 128.216 163.091 129.993 163.091 129.993C162.335 129.381 161.655 128.433 161.112 127.522C160.919 128.254 160.743 128.999 160.604 129.768C160.44 130.647 160.318 131.555 160.236 132.489C160.804 135.459 161.884 137.704 161.884 137.704C161.224 137.17 160.621 136.377 160.117 135.578C160.12 135.861 160.126 136.146 160.136 136.433C160.181 137.627 160.302 138.871 160.507 140.173C160.711 141.474 160.986 142.823 161.488 144.325C163.07 144.228 164.423 143.978 165.706 143.68C166.99 143.382 168.189 143.027 169.313 142.622C169.583 142.524 169.849 142.423 170.113 142.319C169.182 142.152 168.221 141.891 167.478 141.478Z" fill="white"/>
</mask>
<g mask="url(#mask1_530_7894)">
<path d="M186.605 129.659L186.498 129.256C186.429 129.28 179.636 131.578 171.674 129.585L175.212 124.339C183.371 126.407 191.317 122.619 191.397 122.581L191.241 122.199C191.163 122.236 183.441 125.916 175.47 123.958L178.617 119.291C186.816 121.322 194.153 113.459 194.226 113.378L193.934 113.098C193.863 113.176 186.78 120.759 178.876 118.908L182.251 113.904C189.271 113.072 195.582 105.573 195.646 105.496L195.339 105.233C195.278 105.306 189.279 112.429 182.567 113.435L189.52 103.126L189.185 102.901L182.233 113.208C180.651 106.609 185.006 98.3783 185.052 98.2942L184.693 98.1084C184.646 98.1957 180.057 106.857 181.916 113.677L178.541 118.681C173.863 112.047 178.241 102.638 178.286 102.543L177.917 102.377C177.87 102.476 173.328 112.225 178.283 119.065L175.135 123.732C170.336 117.079 170.851 108.536 170.857 108.45L170.445 108.449C170.439 108.537 169.904 117.324 174.878 124.113L171.34 129.359C166.512 122.728 166.094 115.564 166.09 115.492L165.677 115.543C165.68 115.617 166.105 122.977 171.082 129.74L168.421 133.686C163.561 127.072 162.208 121.282 162.195 121.224L161.791 121.346C161.805 121.405 163.186 127.336 168.164 134.066L165.261 138.37C161.198 132.825 160.06 127.979 160.049 127.93L159.646 128.052C159.657 128.103 160.822 133.09 165.004 138.752L162.585 142.338C160.021 138.861 159.276 135.856 159.269 135.826L158.867 135.953C158.898 136.082 159.648 139.128 162.329 142.718L157.615 149.707L157.95 149.933L162.664 142.944C166.997 144.085 170.102 143.639 170.233 143.619L170.201 143.199C170.17 143.203 167.105 143.639 162.921 142.564L165.339 138.978C172.156 140.735 177.216 139.946 177.267 139.938L177.229 139.518C177.18 139.526 172.261 140.287 165.597 138.597L168.499 134.293C176.604 136.386 182.621 135.446 182.681 135.436L182.643 135.016C182.584 135.025 176.709 135.94 168.756 133.912L171.418 129.966C179.551 132.047 186.535 129.683 186.605 129.659Z" fill="#B3C9F9"/>
</g>
<path opacity="0.1" d="M183.281 132.197C183.459 131.952 183.64 131.708 183.81 131.458C184.749 130.07 185.566 128.6 186.262 127.049C185.273 127.334 184.193 127.552 183.273 127.514C183.273 127.514 184.874 126.881 186.841 125.656C187.429 124.131 187.896 122.525 188.224 120.826C187.321 121.227 186.338 121.571 185.465 121.669C185.465 121.669 186.801 120.9 188.448 119.56C188.673 118.07 188.784 116.504 188.773 114.856C188.077 115.318 187.337 115.73 186.637 115.962C186.637 115.962 187.575 115.139 188.749 113.787C188.701 112.611 188.578 111.384 188.374 110.103C188.166 108.8 187.886 107.447 187.377 105.94L161.488 144.325C163.07 144.228 164.423 143.977 165.706 143.679C166.99 143.382 168.189 143.027 169.313 142.622C169.583 142.523 169.849 142.422 170.112 142.319C169.182 142.151 168.222 141.889 167.479 141.477C167.479 141.477 169.965 141.637 172.932 141.05C173.768 140.624 174.564 140.172 175.318 139.691C175.979 139.273 176.603 138.831 177.209 138.378C176.161 138.215 175.027 137.94 174.177 137.469C174.177 137.469 176.145 137.597 178.67 137.212C180.023 136.054 181.233 134.799 182.316 133.459C181.376 133.535 180.389 133.531 179.572 133.335C179.572 133.335 181.195 133.016 183.281 132.197Z" fill="#0046A0"/>
<path d="M101.002 175.206C152.255 175.206 193.804 172.119 193.804 168.312C193.804 164.504 152.255 161.418 101.002 161.418C49.7483 161.418 8.19922 164.504 8.19922 168.312C8.19922 172.119 49.7483 175.206 101.002 175.206Z" fill="#EDF0FC"/>
<path d="M169.848 59.0195H52.0889V164.659H169.848V59.0195Z" fill="#F5F9FF"/>
<path d="M169.848 59.0195H52.0889V71.512H169.848V59.0195Z" fill="#D0DBF7"/>
<path d="M61.5901 65.2656C61.5901 66.5907 60.5159 67.6653 59.1904 67.6653C57.8653 67.6653 56.791 66.5911 56.791 65.2656C56.791 63.94 57.8653 62.8662 59.1904 62.8662C60.5159 62.8658 61.5901 63.94 61.5901 65.2656Z" fill="#EB725F"/>
<path d="M69.6702 65.2656C69.6702 66.5907 68.596 67.6653 67.2705 67.6653C65.9453 67.6653 64.8711 66.5911 64.8711 65.2656C64.8711 63.94 65.9453 62.8662 67.2705 62.8662C68.596 62.8658 69.6702 63.94 69.6702 65.2656Z" fill="#F9AB43"/>
<path d="M77.7503 65.2656C77.7503 66.5907 76.6761 67.6653 75.3505 67.6653C74.025 67.6653 72.9512 66.5911 72.9512 65.2656C72.9512 63.94 74.0254 62.8662 75.3505 62.8662C76.6757 62.8662 77.7503 63.94 77.7503 65.2656Z" fill="#6E7FDD"/>
<path d="M152.591 107.581C153.156 106.15 152.359 104.979 150.821 104.979H94.1394C92.6013 104.979 90.8811 106.15 90.3167 107.581L77.7527 139.444C77.1883 140.874 77.9854 142.045 79.5234 142.045H136.205C137.743 142.045 139.463 140.874 140.027 139.444L152.591 107.581Z" fill="#FFCF74"/>
<path d="M75.0369 136.726L87.6009 104.863C88.1653 103.432 89.8851 102.261 91.4235 102.261H135.919V99.4379C135.919 97.8999 134.66 96.6414 133.122 96.6414H113.274C111.736 96.6414 109.877 95.5353 109.143 94.1835L106.44 89.205C105.707 87.8532 103.847 86.7471 102.309 86.7471H76.8072C75.2692 86.7471 74.0107 88.0055 74.0107 89.5436V136.53C74.0107 137.88 74.9816 139.015 76.2598 139.271C75.0894 139.026 74.544 137.975 75.0369 136.726Z" fill="#FFCF74"/>
<path d="M116.22 113.795C110.384 113.795 105.652 118.526 105.652 124.363C105.652 130.199 110.384 134.931 116.22 134.931C122.057 134.931 126.788 130.199 126.788 124.363C126.788 118.527 122.056 113.795 116.22 113.795ZM121.391 128.01L119.868 129.533L116.22 125.885L112.572 129.533L111.049 128.01L114.698 124.363L111.049 120.715L112.572 119.192L116.22 122.84L119.868 119.192L121.391 120.715L117.743 124.363L121.391 128.01Z" fill="#EB725F"/>
<path d="M50.3678 170.049C67.2922 170.049 81.0121 167.807 81.0121 165.041C81.0121 162.276 67.2922 160.034 50.3678 160.034C33.4435 160.034 19.7236 162.276 19.7236 165.041C19.7236 167.807 33.4435 170.049 50.3678 170.049Z" fill="#EB725F"/>
<path d="M58.9822 102.146H50.3686H41.7545L28.5283 163.944C39.4985 166.308 50.3686 166.308 50.3686 166.308C50.3686 166.308 61.2382 166.308 72.2084 163.944L58.9822 102.146Z" fill="#FFCF74"/>
<path d="M50.3666 103.457C55.1238 103.457 58.9803 102.87 58.9803 102.146C58.9803 101.422 55.1238 100.835 50.3666 100.835C45.6094 100.835 41.7529 101.422 41.7529 102.146C41.7529 102.87 45.6094 103.457 50.3666 103.457Z" fill="#EB725F"/>
<mask id="mask2_530_7894" style="mask-type:luminance" maskUnits="userSpaceOnUse" x="28" y="102" width="45" height="65">
<path d="M58.9774 102.148H50.3637H41.7496L28.5234 163.947C39.4937 166.311 50.3637 166.311 50.3637 166.311C50.3637 166.311 61.2333 166.311 72.2035 163.947L58.9774 102.148Z" fill="white"/>
</mask>
<g mask="url(#mask2_530_7894)">
<path d="M49.9905 161.227C32.2589 161.227 20.2848 158.263 19.541 158.075L22.0078 148.36L20.7744 153.217L22.0026 148.358C22.2567 148.422 47.8133 154.685 79.0013 148.307L81.01 158.127C69.6528 160.45 59.0664 161.227 49.9905 161.227Z" fill="#F9AB43"/>
<path d="M49.9905 139.42C32.2589 139.42 20.2848 136.457 19.541 136.268L22.0078 126.553L20.7744 131.41L22.0026 126.551C22.2567 126.615 47.8133 132.878 79.0013 126.5L81.01 136.32C69.6528 138.643 59.0664 139.42 49.9905 139.42Z" fill="#F9AB43"/>
<path d="M49.9905 117.612C32.2589 117.612 20.2848 114.648 19.541 114.459L22.0078 104.744L20.7744 109.602L22.0026 104.743C22.2567 104.807 47.8133 111.07 79.0013 104.691L81.01 114.512C69.6528 116.834 59.0664 117.612 49.9905 117.612Z" fill="#F9AB43"/>
</g>
<path opacity="0.1" d="M61.1353 131.963C61.1353 145.4 58.3538 157.538 53.8799 166.207C57.9643 166.02 65.0634 165.483 72.2082 163.944L58.982 102.146H55.8962C59.1735 110.313 61.1353 120.679 61.1353 131.963Z" fill="#0046A0"/>
<g opacity="0.3">
<path d="M42.69 111.68C42.3753 113.199 42.0606 114.717 41.7455 116.236C40.9892 119.884 40.2329 123.531 39.4766 127.179C38.5571 131.613 37.638 136.048 36.7185 140.482C35.9275 144.298 35.1364 148.114 34.345 151.93C33.962 153.777 33.4893 155.63 33.1916 157.493C33.1875 157.52 33.1807 157.546 33.1754 157.572C32.8587 159.099 35.2391 159.532 35.555 158.01C35.8697 156.492 36.1848 154.973 36.4995 153.454C37.2558 149.807 38.0121 146.159 38.7684 142.512C39.6879 138.077 40.607 133.643 41.5265 129.208C42.3175 125.392 43.109 121.576 43.9 117.76C44.283 115.913 44.7557 114.06 45.0534 112.197C45.0575 112.17 45.0643 112.144 45.0696 112.118C45.3859 110.591 43.0056 110.158 42.69 111.68Z" fill="white"/>
</g>
<path d="M163.487 148.071L106.363 164.378L107.365 167.887L164.488 151.58L163.487 148.071Z" fill="#6E7FDD"/>
<path d="M163.487 148.072L137.438 155.508L138.439 159.017L164.489 151.58L163.487 148.072Z" fill="#EB725F"/>
<path d="M165.541 168.031C175.604 167.175 183.068 158.325 182.212 148.262C181.357 138.199 172.506 130.735 162.444 131.591C152.381 132.446 144.917 141.297 145.772 151.36C146.628 161.422 155.479 168.886 165.541 168.031Z" fill="#EB725F"/>
<path d="M177.445 155.808C180.756 148.383 177.42 139.68 169.995 136.37C162.569 133.06 153.866 136.396 150.556 143.821C147.246 151.246 150.582 159.949 158.007 163.259C165.432 166.57 174.135 163.234 177.445 155.808Z" fill="#D0DBF7"/>
<path d="M175.052 146.66L173.298 147.161C171.832 142.027 166.464 139.043 161.33 140.509L160.829 138.755C166.93 137.013 173.311 140.56 175.052 146.66Z" fill="white"/>
<path d="M150.358 58.354L132.856 53.0479L122.332 87.7611L149.527 96.006L157.195 70.7136L150.358 58.354Z" fill="#E2E6FF"/>
<path d="M148.59 72.0751L147.34 69.7359L141.736 72.732L138.74 67.1289L136.401 68.3797L139.397 73.9828L133.794 76.9788L135.044 79.318L140.648 76.3215L143.644 81.925L145.983 80.6742L142.987 75.0711L148.59 72.0751Z" fill="#CAD2F9"/>
<path d="M103.916 34.585L86.1465 38.9134L94.7315 74.1564L122.342 67.4306L116.087 41.7527L103.916 34.585Z" fill="#E2E6FF"/>
<path d="M109.368 47.2989L107.102 45.9209L103.8 51.3494L98.3712 48.0476L96.9932 50.3136L102.422 53.6155L99.1198 59.0444L101.386 60.4225L104.688 54.9939L110.117 58.2958L111.495 56.0298L106.066 52.7279L109.368 47.2989Z" fill="#CAD2F9"/>
<path d="M166.181 37.7593H161.664V33.2422H160.057V37.7593H155.54V39.3668H160.057V43.8835H161.664V39.3668H166.181V37.7593Z" fill="#E2E6FF"/>
<path d="M176.298 53.3012H173.838V50.8408H172.962V53.3012H170.502V54.1766H172.962V56.637H173.838V54.1766H176.298V53.3012Z" fill="#E2E6FF"/>
<path d="M149.145 49.0084H146.166V46.0293H145.105V49.0084H142.126V50.0689H145.105V53.0484H146.166V50.0689H149.145V49.0084Z" fill="#E2E6FF"/>
<path d="M36.3455 48.5441H31.8283V44.0273H30.2208V48.5441H25.7041V50.152H30.2208V54.6687H31.8283V50.152H36.3455V48.5441Z" fill="#E2E6FF"/>
<path d="M56.0612 45.8481H53.6009V43.3877H52.725V45.8481H50.2646V46.7235H52.725V49.1839H53.6009V46.7235H56.0612V45.8481Z" fill="#E2E6FF"/>
<path d="M41.0826 65.9111H38.1031V62.9316H37.0426V65.9111H34.0635V66.9712H37.0426V69.9507H38.1031V66.9712H41.0826V65.9111Z" fill="#E2E6FF"/>
<path d="M140.001 30.283C140.001 30.824 139.562 31.2623 139.021 31.2623C138.48 31.2623 138.042 30.824 138.042 30.283C138.042 29.7425 138.48 29.3037 139.021 29.3037C139.562 29.3037 140.001 29.7421 140.001 30.283Z" fill="#CAD2F9"/>
<path d="M184.218 65.4901C184.218 66.5142 183.388 67.3445 182.364 67.3445C181.34 67.3445 180.51 66.5142 180.51 65.4901C180.51 64.466 181.34 63.6357 182.364 63.6357C183.388 63.6357 184.218 64.466 184.218 65.4901Z" fill="#CAD2F9"/>
<path d="M125.523 40.4939C125.523 41.0349 125.085 41.4732 124.544 41.4732C124.003 41.4732 123.564 41.0349 123.564 40.4939C123.564 39.953 124.003 39.5146 124.544 39.5146C125.085 39.5146 125.523 39.953 125.523 40.4939Z" fill="#CAD2F9"/>
<path d="M69.7566 30.2821C69.7566 31.3062 68.9264 32.1365 67.9022 32.1365C66.8781 32.1365 66.0479 31.3062 66.0479 30.2821C66.0479 29.258 66.8781 28.4277 67.9022 28.4277C68.9264 28.4277 69.7566 29.258 69.7566 30.2821Z" fill="#CAD2F9"/>
<path d="M76.9615 49.9422C76.9615 50.4831 76.5232 50.9215 75.9822 50.9215C75.4413 50.9215 75.0029 50.4831 75.0029 49.9422C75.0029 49.4012 75.4413 48.9629 75.9822 48.9629C76.5232 48.9633 76.9615 49.4016 76.9615 49.9422Z" fill="#CAD2F9"/>
<path d="M19.7437 68.9051C19.7437 69.446 19.3054 69.8844 18.7645 69.8844C18.2235 69.8844 17.7852 69.446 17.7852 68.9051C17.7852 68.3641 18.2235 67.9258 18.7645 67.9258C19.3054 67.9258 19.7437 68.3641 19.7437 68.9051Z" fill="#CAD2F9"/>
</g>
<defs>
<clipPath id="clip0_530_7894">
<rect width="202" height="202" fill="white"/>
</clipPath>
</defs>
</svg>
