<svg width="24" height="22" viewBox="0 0 24 22" fill="none" xmlns="http://www.w3.org/2000/svg">
<g clip-path="url(#clip0_49_9225)">
<g clip-path="url(#clip1_49_9225)">
<g clip-path="url(#clip2_49_9225)">
<mask id="mask0_49_9225" style="mask-type:luminance" maskUnits="userSpaceOnUse" x="1" y="0" width="23" height="22">
<path d="M23.015 0.0692139H1.09921V21.9306H23.015V0.0692139Z" fill="white"/>
</mask>
<g mask="url(#mask0_49_9225)">
<path d="M1.09921 0.0692139H22.9606V11.8706L21.8785 13.5613L22.9606 15.0661V21.9306H1.09921V10.8054L1.77551 10.0277L1.09921 9.28377V0.0692139Z" fill="#016FD0"/>
<path d="M5.3428 15.3027V11.8705H8.97688L9.36677 12.3788L9.76957 11.8705H22.9604V15.066C22.9604 15.066 22.6154 15.2993 22.2165 15.3027H14.9124L14.4728 14.7616V15.3027H13.0323V14.3791C13.0323 14.3791 12.8355 14.5081 12.4101 14.5081H11.9198V15.3027H9.73874L9.3494 14.7835L8.95408 15.3027H5.3428Z" fill="white"/>
<path d="M1.09915 9.28322L1.91865 7.37268H3.33588L3.80096 8.44289V7.37268H5.56272L5.83958 8.1462L6.10799 7.37268H14.0165V7.76156C14.0165 7.76156 14.4322 7.37268 15.1155 7.37268L17.6814 7.38166L18.1385 8.43785V7.37268H19.6128L20.0186 7.97938V7.37268H21.5064V10.8049H20.0186L19.6297 10.1962V10.8049H17.4636L17.2457 10.2639H16.6635L16.4491 10.8049H14.9802C14.3922 10.8049 14.0165 10.424 14.0165 10.424V10.8049H11.8016L11.362 10.2639V10.8049H3.12593L2.90825 10.2639H2.32778L2.11164 10.8049H1.09915V9.28322Z" fill="white"/>
<path d="M2.20854 7.7948L1.10321 10.3647H1.82283L2.02678 9.85011H3.21242L3.41531 10.3647H4.15078L3.04652 7.7948H2.20854ZM2.61749 8.3929L2.97888 9.29217H2.25503L2.61749 8.3929Z" fill="#016FD0"/>
<path d="M4.22696 10.3647V7.7948L5.24958 7.7986L5.84437 9.45552L6.42492 7.7948H7.43937V10.3647H6.79689V8.47109L6.11584 10.3647H5.55239L4.86944 8.47109V10.3647H4.22696Z" fill="#016FD0"/>
<path d="M7.87878 10.3647V7.7948H9.97531V8.36966H8.52804V8.80924H9.9415V9.35028H8.52804V9.80678H9.97531V10.3647H7.87878Z" fill="#016FD0"/>
<path d="M10.3474 7.7948V10.3647H10.9899V9.45173H11.2604L12.0308 10.3647H12.8159L11.9706 9.41792C12.3175 9.38864 12.6754 9.09086 12.6754 8.62854C12.6754 8.08774 12.2509 7.7948 11.7772 7.7948H10.3474ZM10.9899 8.36966H11.7243C11.9005 8.36966 12.0287 8.50746 12.0287 8.64017C12.0287 8.8109 11.8626 8.91069 11.7339 8.91069H10.9899V8.36966Z" fill="#016FD0"/>
<path d="M13.5937 10.3647H12.9376V7.7948H13.5937V10.3647Z" fill="#016FD0"/>
<path d="M15.149 10.3647H15.0074C14.3223 10.3647 13.9063 9.82497 13.9063 9.09033C13.9063 8.33756 14.3177 7.7948 15.1829 7.7948H15.893V8.40347H15.1569C14.8057 8.40347 14.5573 8.67756 14.5573 9.09667C14.5573 9.59436 14.8412 9.80341 15.2505 9.80341H15.4196L15.149 10.3647Z" fill="#016FD0"/>
<path d="M16.5474 7.7948L15.4421 10.3647H16.1617L16.3657 9.85011H17.5513L17.7542 10.3647H18.4897L17.3854 7.7948H16.5474ZM16.9563 8.3929L17.3178 9.29217H16.5939L16.9563 8.3929Z" fill="#016FD0"/>
<path d="M18.5644 10.3647V7.7948H19.3812L20.4242 9.40947V7.7948H21.0667V10.3647H20.2763L19.2069 8.7078V10.3647H18.5644Z" fill="#016FD0"/>
<path d="M5.78253 14.8626V12.2927H7.87906V12.8676H6.43178V13.3071H7.84525V13.8482H6.43178V14.3047H7.87906V14.8626H5.78253Z" fill="#016FD0"/>
<path d="M16.0555 14.8626V12.2927H18.152V12.8676H16.7046V13.3071H18.1114V13.8482H16.7046V14.3047H18.152V14.8626H16.0555Z" fill="#016FD0"/>
<path d="M7.96029 14.8626L8.98107 13.5935L7.93597 12.2927H8.74543L9.36783 13.0969L9.99235 12.2927H10.7701L9.73873 13.5777L10.7614 14.8626H9.95209L9.34775 14.0711L8.75811 14.8626H7.96029Z" fill="#016FD0"/>
<path d="M10.8377 12.2927V14.8626H11.4971V14.051H12.1734C12.7456 14.051 13.1794 13.7475 13.1794 13.1571C13.1794 12.668 12.8392 12.2927 12.2569 12.2927H10.8377ZM11.4971 12.8739H12.2093C12.3942 12.8739 12.5263 12.9872 12.5263 13.1697C12.5263 13.3412 12.3949 13.4656 12.2072 13.4656H11.4971V12.8739Z" fill="#016FD0"/>
<path d="M13.4584 12.2927V14.8626H14.1009V13.9496H14.3715L15.1419 14.8626H15.9269L15.0816 13.9158C15.4285 13.8865 15.7864 13.5887 15.7864 13.1264C15.7864 12.5857 15.3619 12.2927 14.8882 12.2927H13.4584ZM14.1009 12.8676H14.8353C15.0116 12.8676 15.1397 13.0053 15.1397 13.138C15.1397 13.3088 14.9737 13.4085 14.8449 13.4085H14.1009V12.8676Z" fill="#016FD0"/>
<path d="M18.4497 14.8626V14.3047H19.7355C19.9257 14.3047 20.0082 14.2018 20.0082 14.0891C20.0082 13.981 19.9259 13.8718 19.7355 13.8718H19.1545C18.6494 13.8718 18.3681 13.5641 18.3681 13.1021C18.3681 12.69 18.6257 12.2927 19.3762 12.2927H20.6273L20.3568 12.871H19.2747C19.0679 12.871 19.0042 12.9794 19.0042 13.0831C19.0042 13.1896 19.0829 13.3071 19.2409 13.3071H19.8495C20.4126 13.3071 20.657 13.6265 20.657 14.0447C20.657 14.4943 20.3847 14.8626 19.8189 14.8626H18.4497Z" fill="#016FD0"/>
<path d="M20.8076 14.8626V14.3047H22.0934C22.2836 14.3047 22.366 14.2018 22.366 14.0891C22.366 13.981 22.2838 13.8718 22.0934 13.8718H21.5124C21.0072 13.8718 20.726 13.5641 20.726 13.1021C20.726 12.69 20.9836 12.2927 21.7341 12.2927H22.9852L22.7147 12.871H21.6326C21.4258 12.871 21.3621 12.9794 21.3621 13.0831C21.3621 13.1896 21.4408 13.3071 21.5988 13.3071H22.2075C22.7705 13.3071 23.0148 13.6265 23.0148 14.0447C23.0148 14.4943 22.7425 14.8626 22.1768 14.8626H20.8076Z" fill="#016FD0"/>
</g>
</g>
</g>
</g>
<defs>
<clipPath id="clip0_49_9225">
<rect width="23.0759" height="21.8613" fill="white" transform="translate(0.788483 0.0693359)"/>
</clipPath>
<clipPath id="clip1_49_9225">
<rect width="23.0759" height="21.8613" fill="white" transform="translate(0.788483 0.0693359)"/>
</clipPath>
<clipPath id="clip2_49_9225">
<rect width="23.0759" height="21.8613" fill="white" transform="translate(0.788483 0.0693359)"/>
</clipPath>
</defs>
</svg>
