<svg width="43" height="20" viewBox="0 0 43 20" fill="none" xmlns="http://www.w3.org/2000/svg">
<g clip-path="url(#clip0_49_9264)">
<g clip-path="url(#clip1_49_9264)">
<g clip-path="url(#clip2_49_9264)">
<mask id="mask0_49_9264" style="mask-type:luminance" maskUnits="userSpaceOnUse" x="0" y="0" width="42" height="20">
<path d="M41.5901 0.283813H0.787415V19.7161H41.5901V0.283813Z" fill="white"/>
</mask>
<g mask="url(#mask0_49_9264)">
<path d="M20.0667 10.3316V15.0749H18.5366V3.34412H22.5148C23.4839 3.34412 24.402 3.70114 25.1161 4.36418C25.8301 4.97622 26.1871 5.89428 26.1871 6.86334C26.1871 7.83241 25.8301 8.69946 25.1161 9.36252C24.402 10.0256 23.5349 10.3826 22.5148 10.3826L20.0667 10.3316ZM20.0667 4.77221V8.85248H22.6169C23.178 8.85248 23.739 8.64847 24.096 8.24044C24.9121 7.47539 24.9121 6.2003 24.147 5.43525L24.096 5.38425C23.6879 4.97622 23.178 4.7212 22.6169 4.77221H20.0667Z" fill="#5F6368"/>
<path d="M29.7057 6.8125C30.8277 6.8125 31.6948 7.11852 32.3578 7.73057C33.0209 8.34261 33.3269 9.15866 33.3269 10.1787V15.0751H31.8988V13.953H31.8478C31.2357 14.871 30.3687 15.3301 29.3486 15.3301C28.4815 15.3301 27.7165 15.0751 27.1045 14.565C26.5434 14.055 26.1865 13.341 26.1865 12.576C26.1865 11.7598 26.4924 11.0968 27.1045 10.5868C27.7165 10.0767 28.5836 9.87271 29.6036 9.87271C30.5217 9.87271 31.2357 10.0257 31.7968 10.3827V10.0257C31.7968 9.51569 31.5928 9.00565 31.1847 8.69963C30.7767 8.34261 30.2666 8.1386 29.7057 8.1386C28.8386 8.1386 28.1756 8.49562 27.7165 9.20967L26.3904 8.39361C27.2065 7.32254 28.2775 6.8125 29.7057 6.8125ZM27.7675 12.6268C27.7675 13.0349 27.9716 13.392 28.2775 13.5959C28.6346 13.851 29.0426 14.004 29.4506 14.004C30.0627 14.004 30.6747 13.7489 31.1337 13.29C31.6438 12.8309 31.8988 12.2699 31.8988 11.6578C31.4397 11.3008 30.7767 11.0968 29.9097 11.0968C29.2976 11.0968 28.7876 11.2498 28.3795 11.5558C27.9716 11.8108 27.7675 12.1679 27.7675 12.6268Z" fill="#5F6368"/>
<path d="M41.5905 7.06726L36.5411 18.645H35.011L36.8982 14.6157L33.5829 7.11826H35.215L37.6122 12.8816H37.6632L40.0093 7.11826H41.5905V7.06726Z" fill="#5F6368"/>
<path d="M13.9969 9.31153C13.9969 8.8525 13.9459 8.39348 13.8949 7.93445H7.51947V10.5356H11.1407C10.9877 11.3517 10.5287 12.1167 9.81462 12.5757V14.2589H12.0078C13.2828 13.0858 13.9969 11.3517 13.9969 9.31153Z" fill="#4285F4"/>
<path d="M7.51962 15.891C9.35575 15.891 10.8859 15.2789 12.0079 14.2588L9.81479 12.5757C9.20274 12.9838 8.43769 13.2387 7.51962 13.2387C5.78551 13.2387 4.25541 12.0657 3.74537 10.4336H1.50122V12.1677C2.6743 14.4628 4.96945 15.891 7.51962 15.891Z" fill="#34A853"/>
<path d="M3.7453 10.4339C3.43928 9.61787 3.43928 8.69982 3.7453 7.83276V6.09863H1.50115C0.532088 7.98576 0.532088 10.2299 1.50115 12.168L3.7453 10.4339Z" fill="#FBBC04"/>
<path d="M7.51971 5.07839C8.48878 5.07839 9.40684 5.43541 10.1209 6.09846L12.059 4.16033C10.8349 3.03825 9.20283 2.37521 7.57071 2.42621C5.02055 2.42621 2.67439 3.85431 1.55231 6.14946L3.79646 7.88357C4.2555 6.25147 5.7856 5.07839 7.51971 5.07839Z" fill="#EA4335"/>
</g>
</g>
</g>
</g>
<defs>
<clipPath id="clip0_49_9264">
<rect width="42.5082" height="19.4323" fill="white" transform="translate(0.183777 0.283813)"/>
</clipPath>
<clipPath id="clip1_49_9264">
<rect width="42.5082" height="19.4323" fill="white" transform="translate(0.183777 0.283813)"/>
</clipPath>
<clipPath id="clip2_49_9264">
<rect width="42.5082" height="19.4323" fill="white" transform="translate(0.183777 0.283813)"/>
</clipPath>
</defs>
</svg>
