<svg width="28" height="26" viewBox="0 0 28 26" fill="none" xmlns="http://www.w3.org/2000/svg">
<g clip-path="url(#clip0_49_9250)">
<g clip-path="url(#clip1_49_9250)">
<g clip-path="url(#clip2_49_9250)">
<mask id="mask0_49_9250" style="mask-type:luminance" maskUnits="userSpaceOnUse" x="1" y="0" width="27" height="26">
<path d="M27.1035 0.854736H1.02924V25.1451H27.1035V0.854736Z" fill="white"/>
</mask>
<g mask="url(#mask0_49_9250)">
<path d="M2.06 18.1234C2.02332 18.1234 1.98788 18.1365 1.96001 18.1605C1.93215 18.1843 1.91368 18.2173 1.90792 18.2535L1.03097 23.8153C1.02777 23.8357 1.02901 23.8563 1.03459 23.8761C1.04017 23.8959 1.04997 23.9142 1.06332 23.9299C1.07666 23.9456 1.09323 23.9581 1.11189 23.9667C1.13055 23.9753 1.15087 23.9798 1.17142 23.9798H2.21165C2.24829 23.9798 2.28372 23.9667 2.31158 23.9429C2.33944 23.9191 2.35792 23.8862 2.36373 23.85L2.62115 22.2166C2.62695 22.1805 2.64545 22.1475 2.67331 22.1237C2.70117 22.0999 2.73659 22.0868 2.77323 22.0868H3.71867C4.82368 22.0868 5.7615 21.2807 5.93282 20.1881C6.10567 19.0866 5.24525 18.1256 4.02532 18.1234H2.06ZM3.07109 19.365H3.8277C4.4506 19.365 4.65323 19.7324 4.58909 20.1389C4.52495 20.5463 4.21023 20.8462 3.60757 20.8462H2.83748L3.07109 19.365ZM8.0485 19.7433C7.78586 19.7443 7.48355 19.798 7.14426 19.9394C6.36613 20.2636 5.99229 20.9341 5.83368 21.4229C5.83368 21.4229 5.32852 22.914 6.46985 23.7333C6.46985 23.7333 7.52822 24.5217 8.71988 23.6846L8.69944 23.8153C8.69624 23.8357 8.69747 23.8563 8.70306 23.8761C8.70864 23.8959 8.71844 23.9142 8.73179 23.9299C8.74513 23.9456 8.76171 23.9581 8.78036 23.9667C8.79903 23.9753 8.81933 23.9798 8.8399 23.9798H9.82729C9.90294 23.9798 9.9673 23.9247 9.97915 23.8497L10.5799 20.041C10.5831 20.0206 10.5818 19.9998 10.5762 19.98C10.5707 19.9604 10.5609 19.942 10.5475 19.9264C10.5342 19.9107 10.5176 19.8982 10.4989 19.8896C10.4803 19.8809 10.46 19.8764 10.4394 19.8763H9.45203C9.37614 19.8763 9.31179 19.9316 9.29994 20.0063L9.26776 20.2112C9.26776 20.2112 8.83653 19.7404 8.0485 19.7433ZM8.08079 20.9464C8.19417 20.9464 8.29788 20.9619 8.39082 20.9919C8.81674 21.1287 9.0585 21.5377 8.98849 21.9813C8.90229 22.5277 8.4543 22.9302 7.87989 22.9302C7.7665 22.9302 7.66259 22.9147 7.56964 22.8848C7.14372 22.7479 6.90054 22.3388 6.97065 21.895C7.05686 21.3488 7.50638 20.9464 8.08079 20.9464Z" fill="#003087"/>
<path d="M16.2787 18.1234C16.203 18.1234 16.1387 18.1786 16.1269 18.2535L15.2496 23.8153C15.2465 23.8357 15.2477 23.8564 15.2533 23.8762C15.2589 23.896 15.2687 23.9144 15.2821 23.93C15.2954 23.9457 15.3121 23.9582 15.3308 23.9668C15.3495 23.9755 15.3698 23.9798 15.3904 23.9798H16.4306C16.5063 23.9798 16.5705 23.9248 16.5824 23.85L16.84 22.2166C16.8459 22.1805 16.8643 22.1475 16.8923 22.1237C16.9201 22.0999 16.9555 22.0868 16.9921 22.0868H17.9376C19.0426 22.0868 19.9804 21.2807 20.1518 20.1881C20.3246 19.0866 19.464 18.1256 18.244 18.1234H16.2787ZM17.2898 19.365H18.0464C18.6694 19.365 18.8722 19.7324 18.8081 20.1389C18.7439 20.5463 18.4291 20.8462 17.8262 20.8462H17.0562L17.2898 19.365ZM22.2675 19.7433C22.0048 19.7443 21.7025 19.798 21.3632 19.9394C20.585 20.2636 20.2109 20.9341 20.0525 21.4229C20.0525 21.4229 19.5473 22.914 20.6887 23.7333C20.6887 23.7333 21.7472 24.5217 22.9388 23.6846L22.9181 23.8153C22.9149 23.8357 22.9162 23.8564 22.9218 23.8762C22.9273 23.896 22.9372 23.9144 22.9505 23.93C22.9639 23.9457 22.9805 23.9582 22.9992 23.9668C23.0179 23.9755 23.0382 23.9798 23.0589 23.9798H24.046C24.0827 23.9798 24.1182 23.9667 24.146 23.9428C24.1738 23.919 24.1924 23.8859 24.1981 23.8497L24.7988 20.041C24.8021 20.0206 24.8007 19.9998 24.7951 19.98C24.7896 19.9603 24.7797 19.9419 24.7664 19.9262C24.753 19.9106 24.7364 19.8981 24.7178 19.8894C24.6991 19.8808 24.6787 19.8763 24.6581 19.8763H23.671C23.5951 19.8763 23.5307 19.9316 23.5189 20.0063L23.4866 20.2112C23.4866 20.2112 23.0555 19.7404 22.2675 19.7433ZM22.2996 20.9464C22.4129 20.9464 22.5168 20.9619 22.6097 20.9919C23.0357 21.1287 23.2772 21.5377 23.2073 21.9813C23.1212 22.5277 22.6731 22.9302 22.0987 22.9302C21.9854 22.9302 21.8816 22.9147 21.7887 22.8848C21.3628 22.7479 21.1196 22.3388 21.1897 21.895C21.2758 21.3488 21.7251 20.9464 22.2996 20.9464Z" fill="#0070E0"/>
<path d="M11.0482 19.8766C11.03 19.8766 11.012 19.8808 10.9958 19.8891C10.9796 19.8974 10.9655 19.9093 10.9548 19.924C10.9441 19.9386 10.937 19.9558 10.9342 19.9736C10.9313 19.9916 10.9327 20.0101 10.9384 20.0273L12.0207 23.3864L11.0418 24.9697C10.9945 25.0466 11.0496 25.1455 11.14 25.1455H12.2966C12.3297 25.1455 12.3622 25.137 12.3911 25.1208C12.4199 25.1045 12.4441 25.0812 12.4613 25.0527L15.4841 20.0515C15.5306 19.9746 15.4752 19.8763 15.3855 19.8763H14.2289C14.1955 19.8763 14.1627 19.885 14.1337 19.9016C14.1047 19.9181 14.0804 19.9419 14.0634 19.9706L12.8735 21.9799L12.2694 19.9856C12.2496 19.9207 12.1899 19.8765 12.122 19.8765L11.0482 19.8766Z" fill="#003087"/>
<path d="M25.9209 18.1234C25.8452 18.1234 25.7809 18.1786 25.769 18.2535L24.8918 23.8153C24.8887 23.8357 24.8899 23.8564 24.8955 23.8762C24.9011 23.896 24.9109 23.9144 24.9243 23.93C24.9376 23.9457 24.9543 23.9582 24.973 23.9668C24.9916 23.9755 25.012 23.9798 25.0325 23.9798H26.0725C26.1481 23.9798 26.2125 23.9248 26.2244 23.85L27.1018 18.288C27.1049 18.2676 27.1037 18.2468 27.0981 18.227C27.0926 18.2072 27.0827 18.1888 27.0692 18.1732C27.0559 18.1575 27.0392 18.1449 27.0205 18.1364C27.0018 18.1278 26.9815 18.1233 26.9609 18.1234H25.9209Z" fill="#0070E0"/>
<path d="M13.073 3.77953C12.8657 3.77953 12.6891 3.93031 12.6568 4.13522L11.9648 8.52246C11.9971 8.31754 12.1739 8.16676 12.3813 8.16676H14.4083C16.4482 8.16676 18.1797 6.67844 18.4958 4.66169C18.5194 4.5112 18.5328 4.35928 18.5357 4.20697C18.0173 3.93499 17.4082 3.77942 16.7412 3.77942L13.073 3.77953Z" fill="#001C64"/>
<path d="M18.5357 4.20618C18.5329 4.35598 18.5198 4.50784 18.4957 4.66111C18.1796 6.67786 16.4482 8.16618 14.4083 8.16618H12.3813C12.174 8.16618 11.9976 8.31696 11.9652 8.52187L11.3294 12.5533L10.9305 15.0826C10.9228 15.1314 10.9258 15.1815 10.9393 15.2289C10.9527 15.2766 10.9763 15.3206 11.0085 15.3583C11.0406 15.3958 11.0805 15.4261 11.1254 15.4467C11.1703 15.4675 11.2192 15.4782 11.2687 15.4782H13.4688C13.6763 15.4782 13.8528 15.3274 13.8852 15.1226L14.4646 11.4468C14.4804 11.3476 14.5309 11.2573 14.6072 11.1921C14.6835 11.1268 14.7805 11.0909 14.881 11.0909H16.1765C18.2164 11.0909 19.9477 9.60265 20.2638 7.586C20.4883 6.15433 19.7678 4.85201 18.5357 4.20618Z" fill="#0070E0"/>
<path d="M10.5735 0.854614C10.4731 0.854702 10.3761 0.890589 10.2998 0.955826C10.2235 1.02106 10.1729 1.11137 10.1573 1.21052L8.43076 12.1583C8.42305 12.2071 8.42602 12.2571 8.43947 12.3047C8.45291 12.3523 8.47652 12.3965 8.50867 12.4341C8.54081 12.4717 8.58072 12.5019 8.62565 12.5226C8.67058 12.5433 8.71947 12.5541 8.76895 12.5541H11.3292L11.965 8.52265L12.6569 4.13542C12.6892 3.9305 12.8659 3.77972 13.0732 3.77972H16.7413C17.4084 3.77972 18.0171 3.93518 18.5357 4.20684C18.5711 2.37076 17.056 0.854724 14.9728 0.854724L10.5735 0.854614Z" fill="#003087"/>
</g>
</g>
</g>
</g>
<defs>
<clipPath id="clip0_49_9250">
<rect width="26.7194" height="24.2904" fill="white" transform="translate(0.664368 0.854858)"/>
</clipPath>
<clipPath id="clip1_49_9250">
<rect width="26.7194" height="24.2904" fill="white" transform="translate(0.664368 0.854858)"/>
</clipPath>
<clipPath id="clip2_49_9250">
<rect width="26.7194" height="24.2904" fill="white" transform="translate(0.664368 0.854858)"/>
</clipPath>
</defs>
</svg>
