<svg width="55" height="18" viewBox="0 0 55 18" fill="none" xmlns="http://www.w3.org/2000/svg">
<g clip-path="url(#clip0_49_9202)">
<g clip-path="url(#clip1_49_9202)">
<g clip-path="url(#clip2_49_9202)">
<mask id="mask0_49_9202" style="mask-type:luminance" maskUnits="userSpaceOnUse" x="0" y="0" width="54" height="18">
<path d="M53.1391 0.498291H0.601196V17.5016H53.1391V0.498291Z" fill="white"/>
</mask>
<g mask="url(#mask0_49_9202)">
<path d="M23.3679 17.2566H19.112L21.774 0.796997H26.0297L23.3679 17.2566Z" fill="#1534CC"/>
<path d="M38.7956 1.19904C37.9561 0.866005 36.6248 0.498291 34.9784 0.498291C30.7755 0.498291 27.8159 2.73948 27.7978 5.94371C27.7628 8.30778 29.9167 9.62085 31.5277 10.4091C33.1742 11.2146 33.734 11.7403 33.734 12.4583C33.7172 13.5609 32.4035 14.0692 31.1781 14.0692C29.4789 14.0692 28.5685 13.8072 27.1849 13.1938L26.6245 12.9307L26.0289 16.6255C27.0271 17.0804 28.8662 17.4838 30.7755 17.5016C35.2412 17.5016 38.1484 15.295 38.1829 11.8804C38.1999 10.0067 37.0625 8.571 34.6105 7.39781C33.1218 6.64469 32.2102 6.13688 32.2102 5.36631C32.2277 4.66579 32.9813 3.94829 34.6616 3.94829C36.0452 3.91314 37.0617 4.24571 37.8319 4.57852L38.2167 4.7533L38.7956 1.19904Z" fill="#1534CC"/>
<path d="M44.4517 11.4256C44.8022 10.48 46.1508 6.82028 46.1508 6.82028C46.1332 6.85543 46.5006 5.85725 46.7109 5.24447L47.0083 6.66274C47.0083 6.66274 47.8142 10.6026 47.9893 11.4256C47.3241 11.4256 45.2923 11.4256 44.4517 11.4256ZM49.7051 0.796997H46.4132C45.398 0.796997 44.6267 1.09443 44.1888 2.16266L37.8671 17.2563H42.3328C42.3328 17.2563 43.0679 15.2248 43.2259 14.7873C43.7159 14.7873 48.0599 14.7873 48.6902 14.7873C48.8123 15.3652 49.1981 17.2563 49.1981 17.2563H53.1386L49.7051 0.796997Z" fill="#1534CC"/>
<path d="M15.5564 0.796997L11.3885 12.0209L10.933 9.74454C10.1624 7.11795 7.74576 4.26421 5.04889 2.84526L8.8666 17.2391H13.3671L20.0567 0.796997H15.5564Z" fill="#1534CC"/>
<path d="M7.51863 0.796997H0.671248L0.601196 1.12957C5.94259 2.49547 9.48008 5.78789 10.9335 9.74524L9.44495 2.18058C9.19988 1.12934 8.44676 0.831673 7.51863 0.796997Z" fill="#1534CC"/>
</g>
</g>
</g>
</g>
<defs>
<clipPath id="clip0_49_9202">
<rect width="53.4388" height="17.0033" fill="white" transform="translate(0.601196 0.498291)"/>
</clipPath>
<clipPath id="clip1_49_9202">
<rect width="53.4388" height="17.0033" fill="white" transform="translate(0.601196 0.498291)"/>
</clipPath>
<clipPath id="clip2_49_9202">
<rect width="53.4388" height="17.0033" fill="white" transform="translate(0.601196 0.498291)"/>
</clipPath>
</defs>
</svg>
