<svg width="27" height="26" viewBox="0 0 27 26" fill="none" xmlns="http://www.w3.org/2000/svg">
<rect x="2.55466" y="1.79993" width="22.4" height="22.4" rx="4.8" fill="#394AFF"/>
<rect x="2.55466" y="1.79993" width="22.4" height="22.4" rx="4.8" fill="#394AFF"/>
<rect x="2.55466" y="1.79993" width="22.4" height="22.4" rx="4.8" fill="#394AFF"/>
<path d="M19.3546 8.6C19.3546 9.26274 18.8174 9.8 18.1546 9.8C17.4919 9.8 16.9546 9.26274 16.9546 8.6C16.9546 7.93726 17.4919 7.4 18.1546 7.4C18.8174 7.4 19.3546 7.93726 19.3546 8.6Z" fill="white"/>
<path fill-rule="evenodd" clip-rule="evenodd" d="M13.7546 17C15.9638 17 17.7546 15.2091 17.7546 13C17.7546 10.7909 15.9638 9 13.7546 9C11.5455 9 9.75464 10.7909 9.75464 13C9.75464 15.2091 11.5455 17 13.7546 17ZM13.7546 15.4C15.0801 15.4 16.1546 14.3255 16.1546 13C16.1546 11.6745 15.0801 10.6 13.7546 10.6C12.4292 10.6 11.3546 11.6745 11.3546 13C11.3546 14.3255 12.4292 15.4 13.7546 15.4Z" fill="white"/>
<path fill-rule="evenodd" clip-rule="evenodd" d="M5.75464 12.68C5.75464 9.99175 5.75464 8.64762 6.27781 7.62085C6.738 6.71767 7.47231 5.98336 8.37548 5.52317C9.40226 5 10.7464 5 13.4346 5H14.0746C16.7629 5 18.107 5 19.1338 5.52317C20.037 5.98336 20.7713 6.71767 21.2315 7.62085C21.7546 8.64762 21.7546 9.99175 21.7546 12.68V13.32C21.7546 16.0083 21.7546 17.3524 21.2315 18.3792C20.7713 19.2823 20.037 20.0166 19.1338 20.4768C18.107 21 16.7629 21 14.0746 21H13.4346C10.7464 21 9.40226 21 8.37548 20.4768C7.47231 20.0166 6.738 19.2823 6.27781 18.3792C5.75464 17.3524 5.75464 16.0083 5.75464 13.32V12.68ZM13.4346 6.6H14.0746C15.4452 6.6 16.3768 6.60124 17.097 6.66008C17.7984 6.71739 18.1572 6.82128 18.4074 6.94878C19.0095 7.25557 19.4991 7.74511 19.8059 8.34723C19.9334 8.59747 20.0372 8.9562 20.0946 9.65766C20.1534 10.3778 20.1546 11.3095 20.1546 12.68V13.32C20.1546 14.6905 20.1534 15.6222 20.0946 16.3423C20.0372 17.0438 19.9334 17.4025 19.8059 17.6528C19.4991 18.2549 19.0095 18.7444 18.4074 19.0512C18.1572 19.1787 17.7984 19.2826 17.097 19.3399C16.3768 19.3988 15.4452 19.4 14.0746 19.4H13.4346C12.0641 19.4 11.1324 19.3988 10.4123 19.3399C9.71083 19.2826 9.35211 19.1787 9.10187 19.0512C8.49975 18.7444 8.01021 18.2549 7.70342 17.6528C7.57591 17.4025 7.47203 17.0438 7.41472 16.3423C7.35588 15.6222 7.35464 14.6905 7.35464 13.32V12.68C7.35464 11.3095 7.35588 10.3778 7.41472 9.65766C7.47203 8.9562 7.57591 8.59747 7.70342 8.34723C8.01021 7.74511 8.49975 7.25557 9.10187 6.94878C9.35211 6.82128 9.71083 6.71739 10.4123 6.66008C11.1324 6.60124 12.0641 6.6 13.4346 6.6Z" fill="white"/>
</svg>
