<svg width="27" height="26" viewBox="0 0 27 26" fill="none" xmlns="http://www.w3.org/2000/svg">
<rect x="2.35464" y="1.79993" width="22.4" height="22.4" rx="4.8" fill="#394AFF"/>
<path d="M10.8495 7.95369C10.8495 8.70133 10.2014 9.30741 9.40206 9.30741C8.60267 9.30741 7.95464 8.70133 7.95464 7.95369C7.95464 7.20606 8.60267 6.59998 9.40206 6.59998C10.2014 6.59998 10.8495 7.20606 10.8495 7.95369Z" fill="white"/>
<path d="M8.15257 10.3025H10.6268V17.8H8.15257V10.3025Z" fill="white"/>
<path d="M14.6103 10.3025H12.1361V17.8H14.6103C14.6103 17.8 14.6103 15.4396 14.6103 13.9639C14.6103 13.0781 14.9128 12.1884 16.1196 12.1884C17.4834 12.1884 17.4752 13.3476 17.4689 14.2457C17.4606 15.4195 17.4804 16.6175 17.4804 17.8H19.9546V13.843C19.9337 11.3163 19.2753 10.152 17.1093 10.152C15.823 10.152 15.0256 10.736 14.6103 11.2644V10.3025Z" fill="white"/>
</svg>
