<svg width="26" height="26" viewBox="0 0 26 26" fill="none" xmlns="http://www.w3.org/2000/svg">
<path d="M9.58564 22.6C6.99764 22.6 4.58518 21.8472 2.55464 20.5484C4.27864 20.66 7.3211 20.3928 9.2135 18.5878C6.3667 18.4572 5.08285 16.2738 4.91539 15.3407C5.15728 15.434 6.31088 15.546 6.96211 15.2847C3.68736 14.4636 3.18498 11.5898 3.29662 10.7127C3.91064 11.1419 4.95261 11.2912 5.36195 11.2539C2.31048 9.07054 3.40826 5.78616 3.94785 5.07703C6.1377 8.11088 9.4196 9.81481 13.4797 9.90959C13.4032 9.57384 13.3628 9.22429 13.3628 8.86527C13.3628 6.28868 15.4454 4.19995 18.0144 4.19995C19.3567 4.19995 20.5662 4.77015 21.4152 5.68222C22.3122 5.47204 23.6621 4.98001 24.322 4.55452C23.9894 5.74884 22.9538 6.74514 22.3274 7.11441C22.3223 7.1018 22.3326 7.12697 22.3274 7.11441C22.8776 7.03118 24.3665 6.74505 24.9546 6.346C24.6638 7.01695 23.5658 8.13253 22.6648 8.75709C22.8325 16.1504 17.1758 22.6 9.58564 22.6Z" fill="#394AFF"/>
</svg>
