<svg width="76" height="22" viewBox="0 0 76 22" fill="none" xmlns="http://www.w3.org/2000/svg">
<g clip-path="url(#clip0_536_12982)">
<mask id="mask0_536_12982" style="mask-type:luminance" maskUnits="userSpaceOnUse" x="1" y="0" width="74" height="21">
<path d="M74.7442 0.745911H1.29443V20.9086H74.7442V0.745911Z" fill="white"/>
</mask>
<g mask="url(#mask0_536_12982)">
<mask id="mask1_536_12982" style="mask-type:luminance" maskUnits="userSpaceOnUse" x="1" y="0" width="74" height="21">
<path d="M74.0312 0.745911H1.29443V20.9086H74.0312V0.745911Z" fill="white"/>
</mask>
<g mask="url(#mask1_536_12982)">
<path d="M73.5825 18.2867C73.5825 17.1661 72.7877 16.3456 71.6931 16.3456C70.6005 16.3456 69.8044 17.1661 69.8044 18.2867C69.8044 19.4055 70.6005 20.2247 71.6931 20.2247C72.7877 20.2247 73.5825 19.4041 73.5825 18.2867ZM71.1968 18.3863V19.6541H70.7869V16.8584H71.8051C72.4014 16.8584 72.675 17.1189 72.675 17.6266C72.675 17.9394 72.4638 18.1872 72.1914 18.223V18.2349C72.4275 18.2727 72.5147 18.4835 72.563 18.8696C72.6006 19.1195 72.6502 19.5532 72.7393 19.655H72.2544C72.1418 19.3923 72.1532 19.0204 72.0667 18.709C71.9948 18.4722 71.8681 18.3859 71.597 18.3859H71.1987V18.3871L71.1968 18.3863ZM71.7046 18.0249C72.1023 18.0249 72.2162 17.813 72.2162 17.6262C72.2162 17.4052 72.1023 17.2307 71.7046 17.2307H71.1968V18.0258H71.7046V18.0249ZM69.3545 18.2867C69.3545 16.9061 70.4503 15.9728 71.6912 15.9728C72.9359 15.9728 74.0305 16.9061 74.0305 18.2867C74.0305 19.6646 72.9366 20.5988 71.6912 20.5988C70.4503 20.5988 69.3545 19.6646 69.3545 18.2867Z" fill="#FF5A00"/>
<path d="M61.2546 20.1957L58.5603 17.174L55.8895 20.1957H50.2698L55.7622 14.025L50.2698 7.85248H56.0649L58.7867 10.851L61.4056 7.85248H66.9979L61.5329 13.9991L67.0742 20.1957H61.2546ZM39.4785 20.1957V0.751221H50.2698V5.08535H44.0495V7.85248H50.2698V12.023H44.0495V15.8507H50.2698V20.1957H39.4785Z" fill="#FF5A00"/>
<path d="M34.9256 0.751221V8.70896H34.8751C33.8672 7.55065 32.6076 7.14694 31.147 7.14694C28.1539 7.14694 25.899 9.18312 25.1076 11.873C24.2048 8.90853 21.8768 7.09152 18.4255 7.09152C15.622 7.09152 13.409 8.34935 12.2529 10.3996V7.85204H6.45911V5.0858H12.7825V0.752131H1.29443V20.1957H6.45911V12.023H11.607C11.4484 12.6514 11.3692 13.2973 11.371 13.9455C11.371 17.9996 14.4691 20.8485 18.4246 20.8485C21.7495 20.8485 23.9424 19.286 25.1012 16.4417H20.6748C20.0765 17.2976 19.622 17.5504 18.425 17.5504C17.0376 17.5504 15.8401 16.3393 15.8401 14.9056H24.853C25.2439 18.1264 27.7534 20.9035 31.1974 20.9035C32.6831 20.9035 34.0432 20.173 34.8746 18.9388H34.9246V20.1984H39.4784V0.752131H34.9256V0.751221ZM15.9838 12.0811C16.2716 10.8456 17.2294 10.0382 18.425 10.0382C19.7415 10.0382 20.6508 10.8206 20.8894 12.0811H15.9838ZM32.1621 17.2367C30.4842 17.2367 29.4413 15.6734 29.4413 14.0405C29.4413 12.2948 30.3486 10.6178 32.1621 10.6178C34.0436 10.6178 34.7933 12.2957 34.7933 14.0405C34.7933 15.6943 33.9995 17.2367 32.1621 17.2367Z" fill="#29007C"/>
</g>
</g>
</g>
<defs>
<clipPath id="clip0_536_12982">
<rect width="74.4545" height="21" fill="white" transform="translate(0.800781 0.5)"/>
</clipPath>
</defs>
</svg>
