<svg width="76" height="32" viewBox="0 0 76 32" fill="none" xmlns="http://www.w3.org/2000/svg">
<g clip-path="url(#clip0_536_12994)">
<mask id="mask0_536_12994" style="mask-type:luminance" maskUnits="userSpaceOnUse" x="0" y="0" width="76" height="32">
<path d="M75.001 0.529846H0.54248V31.8026H75.001V0.529846Z" fill="white"/>
</mask>
<g mask="url(#mask0_536_12994)">
<path fill-rule="evenodd" clip-rule="evenodd" d="M48.4551 25.2106C47.0996 25.5888 45.3345 25.7464 43.8215 25.7464C39.8815 25.7464 37.2969 23.6975 37.2969 19.9466C37.2969 16.3847 39.7239 14.0837 43.2542 14.0837C44.0422 14.0837 44.8932 14.1783 45.3976 14.4304V9.26105H48.4551V25.2106ZM45.3976 17.0781C44.9247 16.8575 44.2628 16.7314 43.5063 16.7314C41.6467 16.7314 40.4175 17.8662 40.4175 19.852C40.4175 21.9639 41.7412 23.1617 43.9161 23.1617C44.2943 23.1617 44.8932 23.1617 45.3976 23.0356V17.0781ZM73.5772 25.2106C72.2219 25.5888 70.4567 25.7464 68.9122 25.7464C65.0036 25.7464 62.3874 23.6975 62.3874 19.9466C62.3874 16.3847 64.8144 14.0837 68.3448 14.0837C69.1644 14.0837 69.9839 14.1783 70.4882 14.4304V9.26105H73.5772V25.2106ZM70.4882 17.0781C70.0154 16.8575 69.385 16.7314 68.6284 16.7314C66.7372 16.7314 65.5079 17.8662 65.5079 19.852C65.5079 21.9639 66.8633 23.1617 69.0383 23.1617C69.4165 23.1617 69.9839 23.1617 70.4882 23.0356V17.0781ZM53.2778 17.0781C53.7822 16.8575 54.5071 16.7945 55.106 16.7945C56.9972 16.7945 58.2896 17.8662 58.2896 19.789C58.2896 22.0584 56.8396 23.0986 54.9169 23.1301V25.7464H55.0745C59.0461 25.7464 61.4103 23.5714 61.4103 19.6944C61.4103 16.1641 58.8885 14.0837 55.169 14.0837C53.2778 14.0837 51.4181 14.525 50.1887 15.0293V30.0017H53.2778V17.0781Z" fill="#3F3F42"/>
<path fill-rule="evenodd" clip-rule="evenodd" d="M26.0127 6.80255L26.517 7.36995L26.8007 7.21232L26.0127 6.80255Z" fill="#DC0032"/>
<path fill-rule="evenodd" clip-rule="evenodd" d="M25.2539 6.39258L26.2311 7.52735L26.5778 7.33819L26.1995 6.89692L25.2539 6.39258Z" fill="#DC0032"/>
<path fill-rule="evenodd" clip-rule="evenodd" d="M24.4658 5.98279L25.9473 7.68488L26.294 7.49579L25.443 6.48712L24.4658 5.98279Z" fill="#DC0032"/>
<path fill-rule="evenodd" clip-rule="evenodd" d="M23.7114 5.57336L25.6657 7.84287L26.0125 7.65371L24.657 6.07769L23.7114 5.57336ZM27.4624 9.57647L27.2418 9.70258L27.4624 9.95472V9.57647Z" fill="#DC0032"/>
<path fill-rule="evenodd" clip-rule="evenodd" d="M22.9517 5.16339L25.3788 8.00026L25.7255 7.81117L23.8973 5.66773L22.9517 5.16339ZM27.333 9.63931L26.9863 9.86004L27.4591 10.4274V9.82847L27.333 9.63931Z" fill="#DC0032"/>
<path fill-rule="evenodd" clip-rule="evenodd" d="M22.1646 4.75354L25.096 8.15781L25.4743 7.96872L23.1417 5.25788L22.1646 4.75354ZM27.0502 9.79686L26.7035 10.0174L27.4601 10.9001V10.3012L27.0502 9.79686Z" fill="#DC0032"/>
<path fill-rule="evenodd" clip-rule="evenodd" d="M21.4087 4.34375L24.8445 8.31534L25.1912 8.12625L22.3543 4.84807L21.4087 4.34375ZM26.7672 9.98596L26.4205 10.1751L27.4606 11.4044V10.8055L26.7672 9.98596Z" fill="#DC0032"/>
<path fill-rule="evenodd" clip-rule="evenodd" d="M20.6533 3.93414L24.5619 8.47311L24.9086 8.28402L21.5989 4.43848L20.6533 3.93414ZM26.4846 10.1437L26.1379 10.3329L27.4618 11.8773V11.2784L26.4846 10.1437Z" fill="#DC0032"/>
<path fill-rule="evenodd" clip-rule="evenodd" d="M19.8662 3.52435L24.2791 8.63072L24.6258 8.44163L20.8434 4.02868L19.8662 3.52435ZM26.2018 10.3013L25.8552 10.4904L27.4627 12.3501V11.7512L26.2018 10.3013Z" fill="#DC0032"/>
<path fill-rule="evenodd" clip-rule="evenodd" d="M19.1079 3.11456L23.9936 8.81982L24.3403 8.59917L20.0535 3.6189L19.1079 3.11456ZM25.9163 10.4589L25.5697 10.648L27.4609 12.8544V12.2555L25.9163 10.4589Z" fill="#DC0032"/>
<path fill-rule="evenodd" clip-rule="evenodd" d="M18.3193 2.70459L23.7094 8.97728L24.0561 8.75655L19.2964 3.20892L18.3193 2.70459ZM25.6636 10.6163L25.2854 10.8054L27.4603 13.327V12.7282L25.6636 10.6163Z" fill="#DC0032"/>
<path fill-rule="evenodd" clip-rule="evenodd" d="M17.564 2.2951L23.4268 9.13506L23.8051 8.91448L18.5411 2.79944L17.564 2.2951ZM25.3811 10.7742L25.0344 10.9633L27.4615 13.8317V13.2013L25.3811 10.7742Z" fill="#DC0032"/>
<path fill-rule="evenodd" clip-rule="evenodd" d="M16.8052 1.88531L23.1724 9.29267L23.5191 9.07194L17.7508 2.38964L16.8052 1.88531ZM25.0951 10.9317L24.7484 11.1208L27.4592 14.3044V13.7056L25.0951 10.9317Z" fill="#DC0032"/>
<path fill-rule="evenodd" clip-rule="evenodd" d="M16.0186 1.44409L22.8901 9.45035L23.2368 9.22962L16.9957 1.97994L16.0186 1.44409ZM24.8129 11.0894L24.4662 11.2785L27.4606 14.7773V14.1785L24.8129 11.0894Z" fill="#DC0032"/>
<path fill-rule="evenodd" clip-rule="evenodd" d="M15.2627 1.03412L22.607 9.60773L22.9537 9.41857L16.2399 1.56997L15.2627 1.03412ZM24.5297 11.2468L24.1831 11.436L27.4612 15.2815V14.6511L24.5297 11.2468Z" fill="#DC0032"/>
<path fill-rule="evenodd" clip-rule="evenodd" d="M14.5068 0.656067L22.3239 9.76552L22.6707 9.57643L15.4524 1.1604L14.5068 0.656067ZM24.2466 11.4046L23.8999 11.5937L27.4617 15.7545V15.1556L24.2466 11.4046Z" fill="#DC0032"/>
<path fill-rule="evenodd" clip-rule="evenodd" d="M14.0024 0.529846L22.0402 9.923L22.387 9.73391L14.6959 0.750489L14.5068 0.655928C14.3492 0.561367 14.1916 0.529846 14.0024 0.529846ZM23.963 11.5621L23.6163 11.7512L27.4618 16.2271V15.6282L23.963 11.5621Z" fill="#DC0032"/>
<path fill-rule="evenodd" clip-rule="evenodd" d="M14.0017 0.529846C13.8757 0.529846 13.7496 0.561367 13.6235 0.592888L21.7558 10.0806L22.1342 9.89151L14.0964 0.529846C14.0648 0.529846 14.0334 0.529846 14.0017 0.529846ZM23.7101 11.7197L23.3634 11.9088L27.4611 16.7315V16.101L23.7101 11.7197Z" fill="#DC0032"/>
<path fill-rule="evenodd" clip-rule="evenodd" d="M13.7191 0.561279C13.656 0.5928 13.5615 0.62432 13.5299 0.655841L13.3408 0.7504L21.5047 10.2381L21.8514 10.049L13.7191 0.561279ZM23.4274 11.8773L23.0807 12.0979L27.462 17.2042V16.6053L23.4274 11.8773Z" fill="#DC0032"/>
<path fill-rule="evenodd" clip-rule="evenodd" d="M13.4033 0.687317L13.0566 0.876438L21.2204 10.3957L21.5673 10.2065L13.4033 0.687317ZM23.1432 12.0348L22.7965 12.2554L27.4616 17.6769V17.0781L23.1432 12.0348Z" fill="#DC0032"/>
<path fill-rule="evenodd" clip-rule="evenodd" d="M13.1177 0.844849L12.771 1.03398L20.9348 10.5532L21.2815 10.3641L13.1177 0.844849ZM22.8576 12.1923L22.5108 12.413L27.4596 18.1812V17.5824L22.8576 12.1923Z" fill="#DC0032"/>
<path fill-rule="evenodd" clip-rule="evenodd" d="M12.835 1.00287L12.4883 1.19199L20.6521 10.7112L20.9988 10.5221L12.835 1.00287ZM22.5749 12.3504L22.2282 12.571L27.4606 18.6544V18.0555L22.5749 12.3504Z" fill="#DC0032"/>
<path fill-rule="evenodd" clip-rule="evenodd" d="M12.5523 1.16034L12.2056 1.34947L20.3694 10.8687L20.7161 10.6796L12.5523 1.16034ZM22.2922 12.5078L21.9455 12.7284L27.4616 19.1272V18.5282L22.2922 12.5078Z" fill="#DC0032"/>
<path fill-rule="evenodd" clip-rule="evenodd" d="M12.27 1.31787L11.9233 1.50699L20.0872 11.0262L20.434 10.8371L12.27 1.31787ZM22.0415 12.6654L21.6948 12.8859L27.463 19.6314V19.0326L22.0415 12.6654Z" fill="#DC0032"/>
<path fill-rule="evenodd" clip-rule="evenodd" d="M11.983 1.44409L11.6362 1.66473L19.8316 11.1839L20.1783 10.9949L11.983 1.44409ZM21.7544 12.8546L21.4076 13.0437L27.4596 20.1043V19.5055L21.7544 12.8546Z" fill="#DC0032"/>
<path fill-rule="evenodd" clip-rule="evenodd" d="M11.7002 1.60156L11.3535 1.79069L19.5489 11.3414L19.8956 11.1523L11.7002 1.60156ZM21.4716 13.012L21.1249 13.2012L27.4606 20.6085V19.9781L21.4716 13.012Z" fill="#DC0032"/>
<path fill-rule="evenodd" clip-rule="evenodd" d="M11.4175 1.75909L11.0708 1.94822L19.2661 11.5305L19.6128 11.3099L11.4175 1.75909ZM21.1889 13.1696L20.8422 13.3587L27.4615 21.0812V20.4824L21.1889 13.1696Z" fill="#DC0032"/>
<path fill-rule="evenodd" clip-rule="evenodd" d="M11.1348 1.91656L10.7881 2.10568L18.9835 11.688L19.3303 11.4673L11.1348 1.91656ZM20.9062 13.327L20.5595 13.5162L27.4626 21.554V20.955L20.9062 13.327Z" fill="#DC0032"/>
<path fill-rule="evenodd" clip-rule="evenodd" d="M10.8482 2.07458L10.5015 2.26371L18.6968 11.846L19.0435 11.6253L10.8482 2.07458ZM20.6196 13.485L20.2729 13.6743L27.4596 22.0587V21.4282L20.6196 13.485Z" fill="#DC0032"/>
<path fill-rule="evenodd" clip-rule="evenodd" d="M10.5655 2.23206L10.2188 2.42118L18.4142 12.0035L18.7609 11.7829L10.5655 2.23206ZM20.3685 13.6425L20.0218 13.8317L27.4606 22.5314V21.9325L20.3685 13.6425Z" fill="#DC0032"/>
<path fill-rule="evenodd" clip-rule="evenodd" d="M10.2816 2.35815L9.90332 2.54727L18.1618 12.1611L18.5086 11.9405L10.2816 2.35815ZM20.0846 13.8002L19.7378 13.9893L27.4603 23.0042V22.4053L20.0846 13.8002Z" fill="#DC0032"/>
<path fill-rule="evenodd" clip-rule="evenodd" d="M9.99886 2.51581L9.62061 2.70493L17.9106 12.3503C17.9421 12.2872 17.9736 12.2557 18.0366 12.2242L18.2258 12.0981L9.99886 2.51581ZM19.8018 13.9578L19.4551 14.147L27.3983 23.414C27.4298 23.3194 27.4613 23.2249 27.4613 23.1303V22.8781L19.8018 13.9578Z" fill="#DC0032"/>
<path fill-rule="evenodd" clip-rule="evenodd" d="M9.71614 2.67334L9.33789 2.86247L17.817 12.7284V12.6024C17.817 12.5078 17.88 12.3817 17.9431 12.2872L9.71614 2.67334ZM19.5191 14.1154L19.267 14.273C19.2353 14.273 19.2039 14.3045 19.1724 14.3045L27.2417 23.7292C27.3362 23.6031 27.3993 23.4771 27.4308 23.351L19.5191 14.1154Z" fill="#DC0032"/>
<path fill-rule="evenodd" clip-rule="evenodd" d="M9.4305 2.83081L9.05225 3.01994L17.815 13.2326V12.6022L9.4305 2.83081ZM18.6346 14.1468L27.019 23.9497C27.1136 23.8866 27.2082 23.7606 27.3028 23.666L19.2335 14.2728C19.1073 14.3359 18.9182 14.3359 18.7922 14.2728L18.6346 14.1468Z" fill="#DC0032"/>
<path fill-rule="evenodd" clip-rule="evenodd" d="M9.14681 2.98828L8.76855 3.1774L26.7353 24.1072L26.9875 23.9811C27.019 23.9496 27.0505 23.918 27.082 23.8865L18.8236 14.2727H18.7921L18.0672 13.8314C18.0041 13.7999 17.9726 13.7369 17.9096 13.6738C17.8465 13.5793 17.8465 13.5162 17.815 13.4532V13.1064L9.14681 2.98828Z" fill="#DC0032"/>
<path fill-rule="evenodd" clip-rule="evenodd" d="M8.86409 3.14612L8.48584 3.33525L26.4526 24.265L26.7994 24.0759L8.86409 3.14612Z" fill="#DC0032"/>
<path fill-rule="evenodd" clip-rule="evenodd" d="M8.58138 3.27203L8.20312 3.46116L26.2015 24.4224L26.5481 24.2333L8.58138 3.27203Z" fill="#DC0032"/>
<path fill-rule="evenodd" clip-rule="evenodd" d="M8.29573 3.42987L7.91748 3.619L25.9158 24.5802L26.2625 24.3911L8.29573 3.42987Z" fill="#DC0032"/>
<path fill-rule="evenodd" clip-rule="evenodd" d="M8.01302 3.5874L7.63477 3.77653L25.633 24.7378L25.9799 24.5487L8.01302 3.5874Z" fill="#DC0032"/>
<path fill-rule="evenodd" clip-rule="evenodd" d="M7.69731 3.74506L7.35059 3.93418L25.3489 24.9269L25.6956 24.7063L7.69731 3.74506Z" fill="#DC0032"/>
<path fill-rule="evenodd" clip-rule="evenodd" d="M7.4146 3.90253L7.06787 4.09165L25.0661 25.0844L25.413 24.8638L7.4146 3.90253Z" fill="#DC0032"/>
<path fill-rule="evenodd" clip-rule="evenodd" d="M7.12945 4.06006L6.78271 4.24918L24.8126 25.2419L25.1593 25.0213L7.12945 4.06006Z" fill="#DC0032"/>
<path fill-rule="evenodd" clip-rule="evenodd" d="M6.84673 4.1861L6.5 4.37522L24.5298 25.3996L24.8766 25.1789L6.84673 4.1861Z" fill="#DC0032"/>
<path fill-rule="evenodd" clip-rule="evenodd" d="M6.56255 4.34375L6.21582 4.53287L24.2457 25.5572L24.5924 25.3681L6.56255 4.34375Z" fill="#DC0032"/>
<path fill-rule="evenodd" clip-rule="evenodd" d="M6.27984 4.50159L5.93311 4.69071L14.6959 14.9034L14.9795 15.0925C15.1056 15.1555 15.2316 15.3132 15.2316 15.4708V15.5023L23.9629 25.715L24.3097 25.5259L6.27984 4.50159Z" fill="#DC0032"/>
<path fill-rule="evenodd" clip-rule="evenodd" d="M5.9942 4.65912L5.64746 4.84823L13.8744 14.4621L14.9145 15.0294L5.9942 4.65912ZM15.1983 15.3761C15.1983 15.4077 15.2297 15.4392 15.2297 15.4707V16.0065L23.6773 25.8726L24.0241 25.6834L15.1983 15.3761Z" fill="#DC0032"/>
<path fill-rule="evenodd" clip-rule="evenodd" d="M5.71147 4.81659L5.36475 5.00572L13.0558 13.9892L14.096 14.5565L5.71147 4.81659ZM15.2307 15.8803V16.4793L23.4261 26.03L23.7729 25.841L15.2307 15.8803Z" fill="#DC0032"/>
<path fill-rule="evenodd" clip-rule="evenodd" d="M5.42877 4.97424L5.08203 5.16337L12.2687 13.5164L13.2774 14.0838L5.42877 4.97424ZM15.2317 16.3532V16.9836L23.1434 26.1877L23.4902 25.9986L15.2317 16.3532Z" fill="#DC0032"/>
<path fill-rule="evenodd" clip-rule="evenodd" d="M5.14507 5.10034L4.79834 5.28947L11.4493 13.0436L12.4578 13.6425L5.14507 5.10034ZM15.2317 16.8575V17.4565L22.8597 26.3453L23.2064 26.1562L15.2317 16.8575Z" fill="#DC0032"/>
<path fill-rule="evenodd" clip-rule="evenodd" d="M4.85941 5.25781L4.5127 5.44694L10.6277 12.5706L11.6364 13.1695L4.85941 5.25781ZM15.2297 17.3303V17.9292L22.5741 26.5028L22.9208 26.3137L15.2297 17.3303Z" fill="#DC0032"/>
<path fill-rule="evenodd" clip-rule="evenodd" d="M4.57671 5.41534L4.22998 5.60447L9.80915 12.1293L10.8178 12.6966L4.57671 5.41534ZM15.2307 17.8029V18.4334L22.2913 26.6918L22.638 26.4712L15.2307 17.8029Z" fill="#DC0032"/>
<path fill-rule="evenodd" clip-rule="evenodd" d="M4.29399 5.57336L3.94727 5.76249L8.99063 11.6569L9.99929 12.2243L4.29399 5.57336ZM15.2317 18.3077V18.9067L22.0402 26.8499L22.3869 26.6292L15.2317 18.3077Z" fill="#DC0032"/>
<path fill-rule="evenodd" clip-rule="evenodd" d="M4.01128 5.73083L3.66455 5.91996L8.17204 11.1839L9.21219 11.7513L4.01128 5.73083ZM15.2326 18.7804V19.3793L21.7574 27.0073L22.1041 26.7866L15.2326 18.7804Z" fill="#DC0032"/>
<path fill-rule="evenodd" clip-rule="evenodd" d="M3.72466 5.88831L3.37793 6.07743L7.34955 10.711L8.38973 11.3099L3.72466 5.88831ZM11.9831 16.1009L12.8026 17.0466V16.6999C12.8026 16.6369 12.7396 16.5423 12.6766 16.5108L11.9831 16.1009ZM15.2297 19.2531V19.8835L21.4708 27.1648L21.8176 26.9441L15.2297 19.2531Z" fill="#DB0032"/>
<path fill-rule="evenodd" clip-rule="evenodd" d="M3.44193 6.01459L3.09521 6.20372L6.53098 10.2384L7.57114 10.8372L3.44193 6.01459ZM11.1645 15.6284L12.8037 17.5196V16.9208L12.2047 16.2273L11.1645 15.6284ZM15.2306 19.7576V20.3565L21.1881 27.3226L21.5348 27.1334L15.2306 19.7576Z" fill="#DC0032"/>
<path fill-rule="evenodd" clip-rule="evenodd" d="M3.15923 6.17206L2.8125 6.36119L5.74393 9.79695L6.75259 10.3643L3.15923 6.17206ZM10.3459 15.1869L12.8046 18.0239V17.425L11.3862 15.7543L10.3459 15.1869ZM15.2316 20.2303V20.8291L20.9054 27.48L21.2521 27.2909L15.2316 20.2303Z" fill="#DC0032"/>
<path fill-rule="evenodd" clip-rule="evenodd" d="M2.87651 6.32953L2.52979 6.51866L4.92536 9.32399L5.93403 9.89133L2.87651 6.32953ZM9.55884 14.714L12.8055 18.4966V17.8976L10.5676 15.2814L9.55884 14.714ZM15.2327 20.7345V21.3334L20.6542 27.6375L21.0009 27.4484L15.2327 20.7345Z" fill="#DC0032"/>
<path fill-rule="evenodd" clip-rule="evenodd" d="M2.5894 6.48706L2.24268 6.67619L4.10239 8.85115L5.11105 9.41849L2.5894 6.48706ZM8.73597 14.2412L12.8022 18.9693V18.3704L9.74455 14.84L8.73597 14.2412ZM15.2291 21.2072V21.8061L20.3671 27.795L20.7137 27.6059L15.2291 21.2072Z" fill="#DC0032"/>
<path fill-rule="evenodd" clip-rule="evenodd" d="M2.30669 6.64508L1.95996 6.83421L3.28382 8.37871L4.29248 8.97762L2.30669 6.64508ZM7.91738 13.7688L12.8031 19.474V18.8751L8.92611 14.3677L7.91738 13.7688ZM15.2302 21.6805V22.2794L20.0844 27.953L20.4311 27.7639L15.2302 21.6805Z" fill="#DC0032"/>
<path fill-rule="evenodd" clip-rule="evenodd" d="M2.02397 6.80255L1.67725 6.99167L2.46526 7.90581L3.50544 8.50465L2.02397 6.80255ZM7.09881 13.3273L12.8041 19.9467V19.3478L8.10744 13.8948L7.09881 13.3273ZM15.2311 22.1846V22.7835L19.8017 28.1105L20.1484 27.9214L15.2311 22.1846Z" fill="#DC0032"/>
<path fill-rule="evenodd" clip-rule="evenodd" d="M1.74056 6.92883L1.3623 7.11796L1.64599 7.46469L2.68618 8.03203L1.74056 6.92883ZM6.27954 12.8547L12.8044 20.4512V19.8208L7.31972 13.4221L6.27954 12.8547ZM15.2313 22.6576V23.2566L19.5182 28.2999L19.865 28.0792L15.2313 22.6576Z" fill="#DC0032"/>
<path fill-rule="evenodd" clip-rule="evenodd" d="M1.45795 7.0863L1.2373 7.21238L1.86772 7.55914L1.45795 7.0863ZM5.46107 12.3818L12.8054 20.9238V20.325L6.50126 12.9807L5.46107 12.3818ZM15.2325 23.1303V23.7607L19.2671 28.4573L19.6139 28.2367L15.2325 23.1303Z" fill="#DC0032"/>
<path fill-rule="evenodd" clip-rule="evenodd" d="M4.67041 11.9088L12.8028 21.3964V20.7976L5.67907 12.5077L4.67041 11.9088ZM15.2298 23.6344V24.2333L18.9808 28.6147L19.3275 28.394L15.2298 23.6344Z" fill="#DC0032"/>
<path fill-rule="evenodd" clip-rule="evenodd" d="M3.85352 11.4675L12.8054 21.9008V21.2705L4.86216 12.0349L3.85352 11.4675ZM15.2324 24.1074V24.7063L18.6998 28.7724L19.0465 28.5517L15.2324 24.1074Z" fill="#DC0032"/>
<path fill-rule="evenodd" clip-rule="evenodd" d="M3.03418 10.9945L12.8057 22.3735V21.7747L4.04284 11.5619L3.03418 10.9945ZM15.2326 24.58V25.2104L18.4163 28.9299L18.763 28.7408L15.2326 24.58Z" fill="#DC0032"/>
<path fill-rule="evenodd" clip-rule="evenodd" d="M2.21436 10.522L12.8053 22.8466V22.2477L3.22302 11.1209L2.21436 10.522ZM15.2324 25.0846V25.6836L18.1323 29.0877L18.479 28.8986L15.2324 25.0846Z" fill="#DB0032"/>
<path fill-rule="evenodd" clip-rule="evenodd" d="M1.39453 10.049L12.805 23.3508V22.7518L2.40319 10.6478L1.39453 10.049ZM15.2321 25.5572V26.1561L17.8798 29.2451L18.2266 29.056L15.2321 25.5572Z" fill="#DA0032"/>
<path fill-rule="evenodd" clip-rule="evenodd" d="M0.575195 9.60779L12.8053 23.8236V23.2247L1.61538 10.1751L0.575195 9.60779ZM15.2323 26.0301V26.6604L17.5964 29.4028L17.9431 29.2136L15.2323 26.0301Z" fill="#D90032"/>
<path fill-rule="evenodd" clip-rule="evenodd" d="M0.54248 9.57635V10.0176L12.8041 24.2965V23.6976L0.794646 9.70239L0.54248 9.57635ZM15.2311 26.5345V26.9127C15.2311 26.9758 15.1996 27.0388 15.1681 27.0703L17.3115 29.5604L17.6582 29.3713L15.2311 26.5345Z" fill="#D80032"/>
<path fill-rule="evenodd" clip-rule="evenodd" d="M0.54248 9.89148V10.5219L12.8041 24.8008V24.2019L0.54248 9.89148ZM15.1996 27.0073C15.1681 27.1333 15.0735 27.2594 14.979 27.2909L14.9474 27.3224L17.0278 29.718L17.3745 29.5289L15.1996 27.0073Z" fill="#D70032"/>
<path fill-rule="evenodd" clip-rule="evenodd" d="M0.54248 10.3958V10.9946L12.8041 25.2736V24.6747L0.54248 10.3958ZM15.0105 27.2594C15.0105 27.2909 15.0105 27.2909 14.979 27.2909L14.6638 27.48L16.7441 29.8756L17.0908 29.6865L15.0105 27.2594Z" fill="#D60032"/>
<path fill-rule="evenodd" clip-rule="evenodd" d="M0.54248 10.8688V11.4677L12.8041 25.7466V25.1477L0.54248 10.8688ZM14.7583 27.4172L14.3801 27.6379L16.492 30.0649L16.8387 29.8443L14.7583 27.4172Z" fill="#D50032"/>
<path fill-rule="evenodd" clip-rule="evenodd" d="M0.54248 11.373V11.972L12.8041 26.2508V25.652L0.54248 11.373ZM14.4747 27.5746L14.254 27.7008C14.191 27.7323 14.1279 27.7323 14.0649 27.7323L16.2082 30.2225L16.555 30.0018L14.4747 27.5746Z" fill="#D40032"/>
<path fill-rule="evenodd" clip-rule="evenodd" d="M0.54248 11.8457V12.4446L12.8041 26.7235V26.1246L0.54248 11.8457ZM13.4975 27.5745L15.9246 30.38L16.2713 30.1593L14.1595 27.7321C14.1279 27.7321 14.0649 27.7637 14.0334 27.7637H14.0019C13.9073 27.7637 13.8443 27.7321 13.7812 27.7007L13.4975 27.5745Z" fill="#D30032"/>
<path fill-rule="evenodd" clip-rule="evenodd" d="M0.54248 12.3185V12.9489L15.6409 30.5375L15.9876 30.3169L13.7182 27.6691L13.0246 27.2908C12.8986 27.2278 12.8041 27.0702 12.8041 26.9126V26.5974L0.54248 12.3185Z" fill="#D20032"/>
<path fill-rule="evenodd" clip-rule="evenodd" d="M0.54248 12.823V13.4218L15.3572 30.6952L15.7039 30.5061L0.54248 12.823Z" fill="#D10032"/>
<path fill-rule="evenodd" clip-rule="evenodd" d="M0.54248 13.2958V13.8947L15.0735 30.8528L15.4202 30.6637L0.54248 13.2958Z" fill="#D00032"/>
<path fill-rule="evenodd" clip-rule="evenodd" d="M0.54248 13.7684V14.3989L14.8214 31.0103L15.1681 30.8212L0.54248 13.7684Z" fill="#CF0032"/>
<path fill-rule="evenodd" clip-rule="evenodd" d="M0.54248 14.2728V14.8717L14.5377 31.1678L14.8844 30.9787L0.54248 14.2728Z" fill="#CE0032"/>
<path fill-rule="evenodd" clip-rule="evenodd" d="M0.54248 14.7458V15.3448L14.2225 31.2942C14.3171 31.2627 14.4116 31.2312 14.5062 31.1997L14.6007 31.1366L0.54248 14.7458Z" fill="#CD0032"/>
<path fill-rule="evenodd" clip-rule="evenodd" d="M0.54248 15.2182V15.8487L13.8127 31.2939C13.8758 31.2939 13.9388 31.2939 14.0019 31.2939C14.0964 31.2939 14.191 31.2939 14.2855 31.2623L0.54248 15.2182Z" fill="#CC0032"/>
<path fill-rule="evenodd" clip-rule="evenodd" d="M0.54248 15.723V16.322L13.0877 30.9476L13.5291 31.1998C13.6236 31.2628 13.7812 31.2943 13.9073 31.2943L0.54248 15.723Z" fill="#CB0032"/>
<path fill-rule="evenodd" clip-rule="evenodd" d="M0.54248 16.1955V16.7945L12.2682 30.4745L13.3083 31.0733L0.54248 16.1955Z" fill="#CA0032"/>
<path fill-rule="evenodd" clip-rule="evenodd" d="M0.54248 16.6998V17.2987L11.4486 30.0016L12.4889 30.6004L0.54248 16.6998Z" fill="#C90032"/>
<path fill-rule="evenodd" clip-rule="evenodd" d="M0.54248 17.1727V17.7717L10.6291 29.5289L11.6378 30.1279L0.54248 17.1727Z" fill="#C80033"/>
<path fill-rule="evenodd" clip-rule="evenodd" d="M0.54248 17.6458V18.2447L9.80958 29.0562L10.8182 29.6551L0.54248 17.6458Z" fill="#C70033"/>
<path fill-rule="evenodd" clip-rule="evenodd" d="M0.54248 18.15V18.749L8.95853 28.5519L9.99868 29.1508L0.54248 18.15Z" fill="#C60033"/>
<path fill-rule="evenodd" clip-rule="evenodd" d="M0.54248 18.6227V19.2216L8.13897 28.0788L9.17911 28.6777L0.54248 18.6227Z" fill="#C50033"/>
<path fill-rule="evenodd" clip-rule="evenodd" d="M0.54248 19.0955V19.6944L7.31944 27.6061L8.35962 28.205L0.54248 19.0955Z" fill="#C40033"/>
<path fill-rule="evenodd" clip-rule="evenodd" d="M0.54248 19.6V20.1989L6.49989 27.1333L7.54006 27.7323L0.54248 19.6Z" fill="#C30033"/>
<path fill-rule="evenodd" clip-rule="evenodd" d="M0.54248 20.0728V20.6716L5.68035 26.6606L6.72054 27.2594L0.54248 20.0728Z" fill="#C20033"/>
<path fill-rule="evenodd" clip-rule="evenodd" d="M0.54248 20.5455V21.1759L4.86081 26.1877L5.86948 26.7866L0.54248 20.5455Z" fill="#C10033"/>
<path fill-rule="evenodd" clip-rule="evenodd" d="M0.54248 21.0497V21.6486L4.00975 25.7148L5.04993 26.3137L0.54248 21.0497Z" fill="#C00033"/>
<path fill-rule="evenodd" clip-rule="evenodd" d="M0.54248 21.5228V22.1216L3.19022 25.2422L4.23041 25.8095L0.54248 21.5228Z" fill="#BF0033"/>
<path fill-rule="evenodd" clip-rule="evenodd" d="M0.54248 21.9952V22.6256L2.37068 24.7376L3.41087 25.3365L0.54248 21.9952Z" fill="#BE0033"/>
<path fill-rule="evenodd" clip-rule="evenodd" d="M0.54248 22.4996V23.0985L1.55114 24.2648L2.59132 24.8637L0.54248 22.4996Z" fill="#BD0033"/>
<path fill-rule="evenodd" clip-rule="evenodd" d="M0.54248 22.9725V23.1301C0.54248 23.4453 0.763125 23.8236 1.01529 23.9812L1.77179 24.3909L0.54248 22.9725Z" fill="#BC0033"/>
<path fill-rule="evenodd" clip-rule="evenodd" d="M0.73291 23.6974C0.795951 23.7605 0.827472 23.8235 0.890513 23.855L0.73291 23.6974Z" fill="#BB0033"/>
</g>
</g>
<defs>
<clipPath id="clip0_536_12994">
<rect width="74.9091" height="32" fill="white" transform="translate(0.255371)"/>
</clipPath>
</defs>
</svg>
