<svg width="60" height="22" viewBox="0 0 60 22" fill="none" xmlns="http://www.w3.org/2000/svg">
<g clip-path="url(#clip0_536_13098)">
<mask id="mask0_536_13098" style="mask-type:luminance" maskUnits="userSpaceOnUse" x="0" y="1" width="59" height="21">
<path d="M58.802 1.12952H0.164551V21.1702H58.802V1.12952Z" fill="white"/>
</mask>
<g mask="url(#mask0_536_13098)">
<path d="M58.396 17.6852C58.396 17.6148 58.396 17.5444 58.396 17.481C58.403 17.474 58.403 17.481 58.4101 17.481C58.4101 17.5515 58.4101 17.6148 58.4101 17.6852C58.4101 17.6923 58.403 17.6923 58.396 17.6852Z" fill="#FDDB3F"/>
<path d="M58.4101 17.4814C58.403 17.4814 58.403 17.4814 58.396 17.4814C58.396 17.4322 58.396 17.3829 58.396 17.3336C58.403 17.3336 58.403 17.3336 58.4101 17.3336C58.4101 17.3829 58.4101 17.4322 58.4101 17.4814Z" fill="#FDEB94"/>
<path d="M58.3971 17.6844C58.4041 17.6844 58.4041 17.6844 58.4112 17.6844C58.4112 17.7267 58.4112 17.7618 58.4112 17.8041C58.383 17.769 58.4041 17.7267 58.3971 17.6844Z" fill="#FEE679"/>
<path d="M12.2248 1.15756C13.2065 1.20665 14.167 1.33987 15.1347 1.52218C15.6535 1.62034 16.1724 1.73253 16.6773 1.90082C16.7544 1.92886 16.8316 1.96392 16.9087 1.98495C16.9788 2.00599 16.9998 2.04105 16.9998 2.11818C16.9998 3.68882 16.9998 5.26647 16.9998 6.83711C16.9998 6.92826 16.9998 7.01941 16.9998 7.11755C16.7054 7.03344 16.4178 6.9493 16.1304 6.86515C15.2118 6.60572 14.2722 6.39536 13.3256 6.26916C12.4563 6.14995 11.5797 6.11489 10.7033 6.23409C9.94598 6.33226 9.22373 6.5356 8.57166 6.94228C7.75127 7.45412 7.22541 8.19041 6.91692 9.09488C6.72056 9.68392 6.62941 10.2939 6.60837 10.918C6.58734 11.4719 6.60837 12.0259 6.69252 12.5798C6.79767 13.2318 6.98704 13.856 7.35863 14.4098C7.84947 15.132 8.54365 15.5457 9.37807 15.7351C9.83381 15.8402 10.2966 15.8963 10.7594 15.8472C11.6288 15.7632 12.3931 15.4406 12.9681 14.7464C12.9962 14.7184 13.0172 14.6833 13.0381 14.6482C13.0452 14.6412 13.0452 14.6342 13.0452 14.6272C13.0172 14.6132 12.9821 14.6201 12.9541 14.6201C11.8462 14.6201 10.7313 14.6201 9.62346 14.6201C9.54632 14.6201 9.51824 14.6061 9.51824 14.5221C9.51824 13.1617 9.51824 11.8084 9.51824 10.4482C9.51824 10.371 9.5393 10.35 9.61637 10.35C12.7226 10.35 15.8219 10.35 18.9281 10.35C19.0052 10.35 19.0262 10.371 19.0262 10.4482C19.0262 13.7998 19.0262 17.1584 19.0262 20.5101C19.0262 20.5802 19.0122 20.6012 18.9351 20.6012C17.68 20.6012 16.4249 20.6012 15.1627 20.6012C15.0786 20.6012 15.0645 20.5732 15.0645 20.4961C15.0716 19.6126 15.0786 18.7291 15.0857 17.8456C15.0857 17.8176 15.0857 17.7825 15.0716 17.7474C15.0435 17.7965 15.0225 17.8456 14.9945 17.8946C14.6018 18.6239 14.0268 19.1848 13.3537 19.6406C12.4422 20.2506 11.4395 20.6222 10.3597 20.8046C10.0442 20.8537 9.73562 20.8887 9.4131 20.9028C9.37807 20.9168 9.34298 20.9028 9.30795 20.9097C9.23776 20.9097 9.16771 20.9097 9.09759 20.9097C9.05548 20.9097 9.01337 20.9097 8.97834 20.9097C8.89418 20.9097 8.80307 20.9097 8.71891 20.9097C8.67687 20.9097 8.63476 20.9097 8.58569 20.9097C7.73028 20.9097 6.89586 20.7696 6.07548 20.5311C5.6127 20.3979 5.16395 20.2226 4.72922 20.0052C4.14023 19.7107 3.59331 19.3391 3.09548 18.8974C2.55557 18.4135 2.06474 17.8736 1.66507 17.2636C1.20229 16.5625 0.858718 15.8051 0.613304 14.9989C0.466057 14.5009 0.346857 13.9891 0.276739 13.4703C0.220645 13.0917 0.171563 12.713 0.171563 12.3273C0.171563 12.2151 0.164551 12.103 0.164551 11.9907C0.164551 11.9487 0.164551 11.9066 0.164551 11.8575C0.164551 11.7734 0.164551 11.6963 0.164551 11.6121C0.164551 11.521 0.164551 11.4227 0.164551 11.3316C0.164551 11.2545 0.164551 11.1774 0.164551 11.1003C0.164551 11.0582 0.164551 11.0161 0.164551 10.9671C0.164551 9.98538 0.325822 9.02483 0.606293 8.0852C0.767564 7.55231 0.970903 7.03344 1.22333 6.5356C1.55289 5.8835 1.96658 5.27348 2.45039 4.71955C3.01834 4.06044 3.67044 3.49249 4.39266 3.00867C5.08682 2.53889 5.83709 2.17427 6.6224 1.88679C7.49887 1.56425 8.40341 1.36091 9.32894 1.2417C9.7917 1.1786 10.2615 1.13653 10.7243 1.13653C10.7594 1.13653 10.7874 1.13653 10.8224 1.13653C10.8646 1.13653 10.9066 1.13653 10.9486 1.13653C10.9977 1.12952 11.0539 1.14354 11.1029 1.12952C11.3553 1.12952 11.6078 1.12952 11.8602 1.12952C11.9093 1.15055 11.9654 1.13653 12.0144 1.13653C12.0495 1.13653 12.0846 1.13653 12.1127 1.13653C12.1547 1.15756 12.1898 1.14354 12.2248 1.15756Z" fill="#061AB1"/>
<path d="M41.3875 20.9168C40.8546 20.9027 40.3217 20.8746 39.7959 20.8326C39.0806 20.7765 38.3724 20.6924 37.6643 20.5732C37.0472 20.468 36.4372 20.3418 35.8411 20.1594C35.7711 20.1384 35.75 20.1103 35.75 20.0333C35.75 18.3574 35.75 16.6816 35.75 15.0058C35.75 14.9006 35.75 14.9006 35.8482 14.9287C36.6546 15.1811 37.482 15.3704 38.3163 15.5317C38.9544 15.6578 39.5995 15.763 40.2446 15.8472C40.7565 15.9103 41.2753 15.9524 41.7942 15.9664C42.257 15.9804 42.7198 15.9594 43.1755 15.8753C43.4349 15.8262 43.6873 15.749 43.9117 15.6018C44.2202 15.4054 44.3534 15.111 44.2903 14.7743C44.2623 14.6131 44.1642 14.501 44.0309 14.4168C43.8135 14.2766 43.5752 14.1994 43.3297 14.1433C42.5654 13.9681 41.8012 13.7927 41.0369 13.6245C40.1955 13.4422 39.3751 13.2038 38.5898 12.8321C37.7483 12.4325 37.0052 11.8996 36.4512 11.1423C35.9955 10.5182 35.722 9.81702 35.5817 9.05981C35.5046 8.64611 35.4766 8.23241 35.4766 7.81169C35.4766 6.6758 35.6799 5.58897 36.2338 4.58628C36.8158 3.52049 37.6643 2.72816 38.737 2.16021C39.5224 1.74651 40.3567 1.48708 41.2262 1.33282C41.7311 1.24167 42.243 1.19258 42.7548 1.16454C42.7898 1.15051 42.8249 1.16454 42.8529 1.15752C42.888 1.15752 42.9301 1.15752 42.9652 1.15752C43.0142 1.15051 43.0563 1.16454 43.1054 1.15051C43.3438 1.15051 43.5752 1.15051 43.8135 1.15051C43.8627 1.17155 43.9187 1.15752 43.9678 1.15752C44.0029 1.15752 44.045 1.15752 44.08 1.15752C44.115 1.15752 44.1431 1.15752 44.1782 1.15752C44.627 1.15752 45.0756 1.19258 45.5174 1.24167C46.2887 1.31879 47.0601 1.41696 47.8244 1.55018C48.3082 1.63433 48.7919 1.72548 49.2758 1.84468C49.4159 1.87974 49.4159 1.88674 49.4159 2.02698C49.4159 3.60464 49.4159 5.18229 49.4159 6.75994C49.4159 6.76695 49.4159 6.77396 49.4159 6.78798C49.4159 6.90719 49.402 6.91419 49.2828 6.88615C48.7218 6.74591 48.1609 6.6197 47.5929 6.51452C46.9549 6.39532 46.3167 6.28314 45.6787 6.19899C45.2369 6.1429 44.7952 6.09382 44.3465 6.05876C43.9608 6.03071 43.5682 6.03071 43.1755 6.04473C42.7688 6.05876 42.3691 6.12187 42.0045 6.31819C41.7732 6.4444 41.5908 6.6197 41.5348 6.88615C41.4716 7.17365 41.5838 7.41202 41.8432 7.58034C42.0326 7.70654 42.243 7.78368 42.4603 7.83976C43.0914 8.00099 43.7224 8.14123 44.3605 8.29551C44.9425 8.43575 45.5315 8.56195 46.0994 8.75125C46.9128 9.02478 47.6911 9.37531 48.3782 9.9082C49.1145 10.4762 49.6684 11.1914 49.991 12.0678C50.1802 12.5867 50.2925 13.1266 50.3415 13.6806C50.3765 14.1013 50.3836 14.522 50.3556 14.9427C50.2714 16.0716 49.9419 17.1163 49.2687 18.0349C48.8621 18.5958 48.3642 19.0586 47.8033 19.4582C47.025 19.9982 46.1625 20.3557 45.251 20.5942C44.7321 20.7274 44.2063 20.8186 43.6804 20.8746C43.3157 20.9167 42.9511 20.9307 42.5935 20.9307C42.5444 20.9307 42.4954 20.9307 42.4462 20.9307C42.3481 20.9307 42.2499 20.9307 42.1518 20.9307C42.0887 20.9307 42.0255 20.9307 41.9624 20.9307C41.8363 20.9307 41.71 20.9307 41.5838 20.9307C41.5137 20.9167 41.4506 20.9307 41.3875 20.9168Z" fill="#061AB1"/>
<path d="M58.4113 17.8526C58.3693 17.9648 58.3693 18.091 58.3482 18.2102C58.222 18.8272 57.9555 19.3601 57.5208 19.8159C57.002 20.3698 56.3639 20.7064 55.6136 20.8046C54.5759 20.9448 53.6644 20.6503 52.9001 19.9281C52.3812 19.4373 52.0587 18.8272 51.9465 18.119C51.7922 17.1234 52.0376 16.2259 52.6898 15.4616C53.1945 14.8726 53.8327 14.494 54.6039 14.3818C55.852 14.1925 56.8968 14.5851 57.7032 15.5598C58.1239 16.0717 58.3482 16.6676 58.4043 17.3267C58.4184 17.3759 58.4043 17.4249 58.4113 17.481C58.4113 17.5441 58.4113 17.6072 58.4113 17.6773C58.4183 17.7194 58.4043 17.7614 58.4184 17.8035C58.4113 17.8176 58.4113 17.8386 58.4113 17.8526Z" fill="#FFD101"/>
<path d="M20.9695 11.03C20.9695 7.8747 20.9695 4.71238 20.9695 1.55708C20.9695 1.47294 20.9905 1.45892 21.0676 1.45892C23.0449 1.45892 25.0293 1.45892 27.0066 1.45892C27.0838 1.45892 27.0977 1.47995 27.0977 1.55708C27.0977 6.2059 27.0977 10.8547 27.0977 15.5035C27.0977 15.6157 27.0978 15.6157 27.2099 15.6157C29.3696 15.6157 31.5362 15.6157 33.6958 15.6157C33.78 15.6157 33.794 15.6368 33.794 15.7139C33.794 17.3125 33.794 18.9113 33.794 20.5099C33.794 20.5941 33.7659 20.6081 33.6889 20.6081C29.4818 20.6081 25.2747 20.6081 21.0676 20.6081C20.9764 20.6081 20.9624 20.5871 20.9624 20.4959C20.9695 17.3406 20.9695 14.1853 20.9695 11.03Z" fill="#061AB1"/>
</g>
</g>
<defs>
<clipPath id="clip0_536_13098">
<rect width="59.0345" height="20.9901" fill="white" transform="translate(0.164551 0.504944)"/>
</clipPath>
</defs>
</svg>
