<svg width="32" height="36" viewBox="0 0 32 36" fill="none" xmlns="http://www.w3.org/2000/svg">
<g clip-path="url(#clip0_536_13135)">
<path fill-rule="evenodd" clip-rule="evenodd" d="M1.25586 10.8817L1.38743 25.5L4.7427 29.5571L14.8089 34.7734L27.1774 28.8487L29.7432 22.8597L29.4801 3.47553L20.1378 3.21793L10.401 4.76349L1.51941 9.78652L1.25586 10.8817Z" fill="#301506"/>
<path d="M15.6679 0.317795C9.80463 0.317795 4.69018 1.42895 0.46582 3.62017V21.1384C0.46582 24.8245 1.88076 27.9069 4.55696 30.0543C7.04179 32.0495 14.7265 35.3374 15.6682 35.7368C16.5613 35.3563 24.3371 32.0175 26.7825 30.0543C29.4572 27.9081 30.8725 24.8247 30.8725 21.1384V3.62017C26.6475 1.42866 21.5331 0.317505 15.6674 0.317505L15.6679 0.317795ZM24.3499 3.7098C26.0983 3.73217 27.8152 3.8379 29.4748 3.98887V21.1382C29.4748 24.4338 28.2531 27.0959 25.8959 28.9964C23.7901 30.694 17.4401 33.4788 15.6682 34.2433C13.8726 33.4685 7.50672 30.6485 5.43874 28.9971C3.0955 27.1291 1.86207 24.4038 1.86207 21.1389V11.1182C8.59589 5.07342 16.7728 3.61318 24.3493 3.71019L24.3499 3.7098ZM16.0643 11.6952C14.6217 11.6952 13.4577 12.0109 12.4993 12.6164V29.4892H15.1453V24.0382C15.4093 24.1144 15.7926 24.1856 16.3356 24.1856C19.2706 24.1856 20.9576 21.5958 20.9576 17.8144C20.9576 14.0404 19.2205 11.6952 16.0643 11.6952ZM25.1052 11.6952C23.3651 11.7446 21.5454 12.9785 21.5565 15.0702C21.5609 16.4475 21.951 17.4775 24.1317 18.73C25.2954 19.3986 25.7643 19.8393 25.7844 20.6517C25.8066 21.5549 25.1691 22.0995 24.1989 22.0959C23.3548 22.0893 22.3457 21.6308 21.67 21.0419V23.4254C22.4985 23.909 23.5323 24.2286 24.5767 24.2286C27.1906 24.2286 28.3578 22.4213 28.4082 20.7651C28.4579 19.2556 28.0318 18.1135 25.8214 16.8422C24.8349 16.2758 24.0558 15.9036 24.0818 14.9612C24.1078 14.0413 24.888 13.7181 25.6372 13.7247C26.5614 13.7327 27.4554 14.2337 28.0072 14.7877V12.5369C27.5422 12.1862 26.5576 11.6516 25.1052 11.6952ZM3.21323 11.9573V20.096C3.21323 22.8398 4.53916 24.2288 7.15602 24.2288C8.77527 24.2288 10.1315 23.862 11.1417 23.1896V11.9573H8.5016V21.7161C8.2138 21.9092 7.78692 22.0326 7.2499 22.0326C6.03789 22.0326 5.85679 20.9446 5.85679 20.2106V11.9575L3.21323 11.9573ZM16.0821 13.7804C17.6168 13.7804 18.2529 14.9797 18.2529 17.8803C18.2529 20.7104 17.5254 22.0778 16.0033 22.0778C15.6451 22.0778 15.3337 21.9909 15.1445 21.9212V13.9678C15.3589 13.8632 15.7231 13.7804 16.0821 13.7804Z" fill="#FAB80A"/>
</g>
<defs>
<clipPath id="clip0_536_13135">
<rect width="31" height="36" fill="white" transform="translate(0.19873)"/>
</clipPath>
</defs>
</svg>
