<svg width="110" height="14" viewBox="0 0 110 14" fill="none" xmlns="http://www.w3.org/2000/svg">
<g clip-path="url(#clip0_536_13110)">
<mask id="mask0_536_13110" style="mask-type:luminance" maskUnits="userSpaceOnUse" x="0" y="0" width="109" height="14">
<path d="M108.717 0.129517H0.352051V13.4703H108.717V0.129517Z" fill="white"/>
</mask>
<g mask="url(#mask0_536_13110)">
<path d="M14.4807 13.4689L21.4025 5.2438H29.9922C30.9417 5.2438 30.9292 5.55928 30.4652 6.10903C29.994 6.6671 29.1925 7.62734 28.7124 8.19419C28.4686 8.48186 28.0283 9.00686 29.4876 9.00686H40.9952C40.0382 10.1535 36.9338 13.4687 31.3597 13.4687L14.4807 13.4689ZM54.123 9.00583L50.3693 13.4686H40.4676C40.4676 13.4686 44.2192 9.00686 44.2225 9.00686L54.123 9.00583ZM69.2919 7.99657H45.0731L51.696 0.129517H61.5948L57.7987 4.64048H62.2172L66.0149 0.129517H75.9126L69.2919 7.99657ZM68.4418 9.007L64.6864 13.4689H54.7884C54.7884 13.4689 58.54 9.007 58.5432 9.007H68.4418ZM0.352051 10.7664H14.9392L14.1423 11.7144H0.352051V10.7664ZM0.352051 9.007H16.4212L15.6227 9.95362H0.352051V9.007ZM0.352051 12.5268H13.4579L12.665 13.4689H0.352051V12.5268ZM108.218 11.7144H93.687L94.485 10.7666H108.218V11.7144ZM108.218 13.4689L92.21 13.4702L93.0034 12.5268H108.218V13.4689ZM95.9643 9.007H108.218V9.95414L95.1678 9.95495L95.9643 9.007ZM89.6205 0.129517L82.9995 7.99635H72.5105C72.5105 7.99635 79.1339 0.129517 79.137 0.129517H89.6205ZM71.6617 9.007C71.6617 9.007 70.9381 9.87176 70.5869 10.2874C69.3436 11.757 70.4427 13.4689 74.5 13.4689H90.3967L94.1518 9.007H71.6617Z" fill="#D2002E"/>
<path d="M19.3222 0.129517L15.876 4.22401H34.6582C35.6076 4.22401 35.5952 4.53949 35.131 5.08924C34.6598 5.64731 33.8711 6.61785 33.3911 7.18473C33.1476 7.47246 32.7071 7.99657 34.1666 7.99657H41.8473C41.8473 7.99657 43.0853 6.52334 44.1229 5.29157C45.5348 3.61619 44.2455 0.129683 39.1983 0.129683L19.3222 0.129517Z" fill="#D2002E"/>
</g>
</g>
<defs>
<clipPath id="clip0_536_13110">
<rect width="109" height="14" fill="white" transform="translate(0.19873)"/>
</clipPath>
</defs>
</svg>
