<svg width="43" height="18" viewBox="0 0 43 18" fill="none" xmlns="http://www.w3.org/2000/svg">
<g clip-path="url(#clip0_49_9278)">
<g clip-path="url(#clip1_49_9278)">
<g clip-path="url(#clip2_49_9278)">
<mask id="mask0_49_9278" style="mask-type:luminance" maskUnits="userSpaceOnUse" x="0" y="0" width="43" height="18">
<path d="M42.0066 0.498413H0.590515V17.5017H42.0066V0.498413Z" fill="white"/>
</mask>
<g mask="url(#mask0_49_9278)">
<path d="M8.16216 2.69044C7.67682 3.26476 6.90026 3.71775 6.12371 3.65303C6.02664 2.87648 6.40683 2.0514 6.85173 1.54178C7.33708 0.95128 8.18643 0.530647 8.874 0.498291C8.95489 1.3072 8.63942 2.09993 8.16216 2.69044ZM8.86591 3.80673C7.74153 3.74201 6.77893 4.44577 6.24505 4.44577C5.70308 4.44577 4.88609 3.83908 3.99628 3.85527C2.83954 3.87144 1.76369 4.52666 1.17319 5.57015C-0.0401736 7.65713 0.857716 10.7472 2.03063 12.4458C2.60496 13.2872 3.29253 14.2093 4.19851 14.177C5.05595 14.1446 5.3957 13.6188 6.4311 13.6188C7.47459 13.6188 7.77389 14.177 8.67986 14.1607C9.6182 14.1446 10.2087 13.3195 10.783 12.4783C11.4382 11.5237 11.7052 10.5935 11.7213 10.5449C11.7052 10.5288 9.9094 9.84119 9.89323 7.77038C9.87705 6.03931 11.3088 5.21423 11.3735 5.1657C10.5646 3.96851 9.30273 3.83908 8.86591 3.80673ZM15.3614 1.46089V14.0718H17.319V9.7603H20.0288C22.5042 9.7603 24.2433 8.06159 24.2433 5.6025C24.2433 3.14342 22.5365 1.46089 20.0935 1.46089H15.3614ZM17.319 3.11107H19.5759C21.2746 3.11107 22.2453 4.01704 22.2453 5.6106C22.2453 7.20414 21.2746 8.11821 19.5678 8.11821H17.319V3.11107ZM27.8186 14.1688C29.0482 14.1688 30.1888 13.546 30.7064 12.5591H30.7469V14.0718H32.5588V7.79465C32.5588 5.97461 31.1028 4.80169 28.8621 4.80169C26.7833 4.80169 25.2464 5.99078 25.1897 7.62477H26.9531C27.0988 6.84822 27.8186 6.33861 28.8055 6.33861C30.0027 6.33861 30.6741 6.89676 30.6741 7.92407V8.61974L28.2312 8.76534C25.9582 8.90286 24.7286 9.83309 24.7286 11.4509C24.7286 13.085 25.9987 14.1688 27.8186 14.1688ZM28.3445 12.6724C27.301 12.6724 26.6377 12.1708 26.6377 11.4024C26.6377 10.6097 27.2767 10.1486 28.4981 10.0758L30.6741 9.93826V10.6501C30.6741 11.8311 29.671 12.6724 28.3445 12.6724ZM34.9774 17.5016C36.8865 17.5016 37.7844 16.7735 38.5691 14.5652L42.0069 4.92302H40.017L37.7116 12.3731H37.6712L35.3658 4.92302H33.3192L36.6358 14.1041L36.4578 14.6623C36.1585 15.6087 35.6732 15.9727 34.8076 15.9727C34.654 15.9727 34.3546 15.9565 34.2333 15.9403V17.453C34.3465 17.4854 34.8319 17.5016 34.9774 17.5016Z" fill="black"/>
</g>
</g>
</g>
</g>
<defs>
<clipPath id="clip0_49_9278">
<rect width="42.5082" height="17.0033" fill="white" transform="translate(0.491943 0.498413)"/>
</clipPath>
<clipPath id="clip1_49_9278">
<rect width="42.5082" height="17.0033" fill="white" transform="translate(0.491943 0.498413)"/>
</clipPath>
<clipPath id="clip2_49_9278">
<rect width="42.5082" height="17.0033" fill="white" transform="translate(0.491943 0.498413)"/>
</clipPath>
</defs>
</svg>
