<svg width="30" height="22" viewBox="0 0 30 22" fill="none" xmlns="http://www.w3.org/2000/svg">
<g clip-path="url(#clip0_49_9214)">
<g clip-path="url(#clip1_49_9214)">
<g clip-path="url(#clip2_49_9214)">
<mask id="mask0_49_9214" style="mask-type:luminance" maskUnits="userSpaceOnUse" x="0" y="0" width="30" height="22">
<path d="M29.0844 0.0692139H0.93515V21.9306H29.0844V0.0692139Z" fill="white"/>
</mask>
<g mask="url(#mask0_49_9214)">
<path d="M6.03737 21.8828V20.4319C6.03737 19.8769 5.69931 19.5135 5.11898 19.5135C4.8288 19.5135 4.51327 19.6093 4.29636 19.9249C4.12732 19.66 3.88505 19.5135 3.52163 19.5135C3.27935 19.5135 3.03707 19.5867 2.84551 19.8516V19.5615H2.33841V21.8828H2.84551V20.601C2.84551 20.1896 3.06243 19.9953 3.40049 19.9953C3.73856 19.9953 3.90758 20.2122 3.90758 20.601V21.8828H4.41468V20.601C4.41468 20.1896 4.65695 19.9953 4.96966 19.9953C5.30773 19.9953 5.47675 20.2122 5.47675 20.601V21.8828H6.03737ZM13.5593 19.5615H12.7366V18.86H12.2295V19.5615H11.7703V20.0206H12.2295V21.0856C12.2295 21.618 12.4465 21.9306 13.0269 21.9306C13.2438 21.9306 13.4861 21.8574 13.655 21.7617L13.5085 21.325C13.3621 21.4208 13.193 21.4462 13.0719 21.4462C12.8296 21.4462 12.7338 21.2996 12.7338 21.0602V20.0206H13.5564V19.5615H13.5593ZM17.8639 19.5107C17.5738 19.5107 17.3793 19.6572 17.2582 19.8488V19.5586H16.7512V21.88H17.2582V20.5728C17.2582 20.1868 17.4273 19.9671 17.7427 19.9671C17.8385 19.9671 17.9597 19.9925 18.0582 20.015L18.2048 19.5304C18.1034 19.5107 17.9597 19.5107 17.8639 19.5107ZM11.359 19.753C11.1168 19.584 10.7787 19.5107 10.4153 19.5107C9.83494 19.5107 9.44898 19.8009 9.44898 20.2601C9.44898 20.646 9.73915 20.8658 10.2463 20.9362L10.4885 20.9616C10.7533 21.0094 10.8998 21.0827 10.8998 21.2039C10.8998 21.3728 10.7054 21.494 10.3674 21.494C10.0293 21.494 9.7617 21.3728 9.59266 21.2517L9.35039 21.6377C9.6152 21.832 9.97861 21.9279 10.342 21.9279C11.0182 21.9279 11.4069 21.6123 11.4069 21.1785C11.4069 20.7671 11.0914 20.5502 10.6097 20.477L10.3674 20.4516C10.1505 20.4263 9.98143 20.3784 9.98143 20.2347C9.98143 20.0658 10.1505 19.9699 10.4181 19.9699C10.7083 19.9699 10.9984 20.091 11.1449 20.1643L11.359 19.753ZM24.8506 19.5107C24.5604 19.5107 24.366 19.6572 24.2449 19.8488V19.5586H23.7377V21.88H24.2449V20.5728C24.2449 20.1868 24.4138 19.9671 24.7294 19.9671C24.8252 19.9671 24.9463 19.9925 25.0449 20.015L25.1914 19.5361C25.0929 19.5107 24.9492 19.5107 24.8506 19.5107ZM18.371 20.7221C18.371 21.4236 18.8556 21.9306 19.6049 21.9306C19.9429 21.9306 20.1852 21.8574 20.4275 21.6659L20.1852 21.2545C19.9909 21.401 19.7993 21.4714 19.5795 21.4714C19.1683 21.4714 18.878 21.1813 18.878 20.7221C18.878 20.2855 19.1683 19.9953 19.5795 19.9727C19.7965 19.9727 19.9909 20.046 20.1852 20.1896L20.4275 19.7784C20.1852 19.584 19.9429 19.5135 19.6049 19.5135C18.8556 19.5107 18.371 20.0206 18.371 20.7221ZM23.0616 20.7221V19.5615H22.5545V19.8516C22.3855 19.6347 22.1432 19.5135 21.8277 19.5135C21.1741 19.5135 20.667 20.0206 20.667 20.7221C20.667 21.4236 21.1741 21.9306 21.8277 21.9306C22.1657 21.9306 22.408 21.8096 22.5545 21.5926V21.8828H23.0616V20.7221ZM21.1995 20.7221C21.1995 20.3108 21.4642 19.9727 21.901 19.9727C22.3122 19.9727 22.6024 20.2883 22.6024 20.7221C22.6024 21.1334 22.3122 21.4714 21.901 21.4714C21.467 21.4462 21.1995 21.1306 21.1995 20.7221ZM15.1313 19.5107C14.4551 19.5107 13.9705 19.9953 13.9705 20.7193C13.9705 21.4462 14.4551 21.9279 15.1566 21.9279C15.4946 21.9279 15.8328 21.832 16.1003 21.6123L15.858 21.2489C15.6637 21.3954 15.4214 21.4912 15.1819 21.4912C14.8664 21.4912 14.5537 21.3448 14.4805 20.9362H16.1961C16.1961 20.863 16.1961 20.8151 16.1961 20.7419C16.2187 19.9953 15.782 19.5107 15.1313 19.5107ZM15.1313 19.9473C15.4468 19.9473 15.6637 20.1418 15.7116 20.5024H14.503C14.551 20.1896 14.7679 19.9473 15.1313 19.9473ZM27.7297 20.7221V18.6431H27.2226V19.8516C27.0536 19.6347 26.8113 19.5135 26.4957 19.5135C25.8422 19.5135 25.335 20.0206 25.335 20.7221C25.335 21.4236 25.8422 21.9306 26.4957 21.9306C26.8339 21.9306 27.076 21.8096 27.2226 21.5926V21.8828H27.7297V20.7221ZM25.8675 20.7221C25.8675 20.3108 26.1324 19.9727 26.569 19.9727C26.9803 19.9727 27.2705 20.2883 27.2705 20.7221C27.2705 21.1334 26.9803 21.4714 26.569 21.4714C26.1324 21.4462 25.8675 21.1306 25.8675 20.7221ZM8.89118 20.7221V19.5615H8.38409V19.8516C8.21505 19.6347 7.97278 19.5135 7.65725 19.5135C7.00367 19.5135 6.49657 20.0206 6.49657 20.7221C6.49657 21.4236 7.00367 21.9306 7.65725 21.9306C7.99531 21.9306 8.2376 21.8096 8.38409 21.5926V21.8828H8.89118V20.7221ZM7.00649 20.7221C7.00649 20.3108 7.2713 19.9727 7.70797 19.9727C8.11928 19.9727 8.40944 20.2883 8.40944 20.7221C8.40944 21.1334 8.11928 21.4714 7.70797 21.4714C7.2713 21.4462 7.00649 21.1306 7.00649 20.7221Z" fill="black"/>
<path d="M18.8076 1.93152H11.19V15.6174H18.8076V1.93152Z" fill="#FF5A00"/>
<path d="M11.6968 8.77431C11.6968 5.99375 13.004 3.52589 15.0098 1.93137C13.5336 0.770692 11.6714 0.0692139 9.64025 0.0692139C4.8285 0.0692139 0.93515 3.96256 0.93515 8.77431C0.93515 13.5861 4.8285 17.4795 9.64025 17.4795C11.6714 17.4795 13.5336 16.778 15.0098 15.6172C13.0012 14.0453 11.6968 11.5549 11.6968 8.77431Z" fill="#EB001B"/>
<path d="M29.0846 8.77419C29.0846 13.586 25.1912 17.4793 20.3794 17.4793C18.3482 17.4793 16.4861 16.7778 15.0099 15.6171C17.041 14.0198 18.3228 11.5547 18.3228 8.77419C18.3228 5.99362 17.0156 3.52577 15.0099 1.93125C16.4832 0.77057 18.3454 0.0690918 20.3766 0.0690918C25.1912 0.0690918 29.0846 3.9878 29.0846 8.77419Z" fill="#F79E1B"/>
</g>
</g>
</g>
</g>
<defs>
<clipPath id="clip0_49_9214">
<rect width="29.1485" height="21.8613" fill="white" transform="translate(0.840027 0.0693359)"/>
</clipPath>
<clipPath id="clip1_49_9214">
<rect width="29.1485" height="21.8613" fill="white" transform="translate(0.840027 0.0693359)"/>
</clipPath>
<clipPath id="clip2_49_9214">
<rect width="29.1485" height="21.8613" fill="white" transform="translate(0.840027 0.0693359)"/>
</clipPath>
</defs>
</svg>
