<svg width="137" height="28" viewBox="0 0 137 28" fill="none" xmlns="http://www.w3.org/2000/svg">
<g clip-path="url(#clip0_49_9078)">
<path fill-rule="evenodd" clip-rule="evenodd" d="M17.3323 8.17971C16.217 7.41055 14.9057 7 13.5644 7V0C16.2471 0 18.8696 0.821086 21.1003 2.35943C23.331 3.89776 25.0695 6.08427 26.0962 8.64241C27.1228 11.2006 27.3915 14.0155 26.8681 16.7313C26.3447 19.447 25.0528 21.9416 23.1558 23.8995C21.2588 25.8574 18.8418 27.1908 16.2106 27.731C13.5794 28.2712 10.852 27.9939 8.37348 26.9343C5.89493 25.8747 3.77647 24.0803 2.28601 21.778C0.795536 19.4757 0 16.7689 0 14H6.78218C6.78218 15.3845 7.17995 16.7378 7.92518 17.889C8.6704 19.0401 9.72965 19.9373 10.969 20.4672C12.2082 20.997 13.5719 21.1356 14.8875 20.8655C16.2031 20.5954 17.4115 19.9287 18.3601 18.9498C19.3086 17.9708 19.9545 16.7235 20.2162 15.3656C20.4779 14.0078 20.3436 12.6003 19.8303 11.3212C19.3169 10.0421 18.4477 8.94887 17.3323 8.17971Z" fill="#1320AE"/>
<path fill-rule="evenodd" clip-rule="evenodd" d="M6.78217 3.69945e-06C6.78217 0.919257 6.60675 1.82951 6.26591 2.67879C5.92508 3.52807 5.42551 4.29974 4.79572 4.94975C4.16594 5.59976 3.41828 6.11538 2.59543 6.46716C1.77257 6.81894 0.890645 7 2.96456e-07 7L0 14C1.78129 14 3.54515 13.6379 5.19086 12.9343C6.83657 12.2308 8.3319 11.1995 9.59142 9.89947C10.851 8.5995 11.8502 7.05614 12.5318 5.35757C13.2135 3.65901 13.5644 1.8385 13.5644 0L6.78217 3.69945e-06Z" fill="#1320AE"/>
<path d="M85.1971 10.1167H81.9064V20.9053H85.1971V10.1167Z" fill="#1320AE"/>
<path d="M82.2725 8.09664C82.6164 8.45182 83.0463 8.62941 83.5625 8.62941C84.0786 8.62941 84.5018 8.45182 84.8314 8.09664C85.1617 7.72669 85.3265 7.28268 85.3265 6.76472C85.3265 6.23196 85.1617 5.78797 84.8314 5.4328C84.5018 5.07761 84.0786 4.90002 83.5625 4.90002C83.0463 4.90002 82.6164 5.07761 82.2725 5.4328C81.9422 5.78797 81.7774 6.23196 81.7774 6.76472C81.7774 7.28268 81.9422 7.72669 82.2725 8.09664Z" fill="#1320AE"/>
<path d="M34.6951 20.9053V5.23291H38.0718V17.8419H44.8039V20.9053H34.6951Z" fill="#1320AE"/>
<path fill-rule="evenodd" clip-rule="evenodd" d="M50.8849 21.1496C49.8095 21.1496 48.8345 20.9054 47.9598 20.417C47.0995 19.9138 46.4184 19.2331 45.9165 18.3747C45.4147 17.5163 45.1638 16.5544 45.1638 15.4889C45.1638 14.4233 45.4147 13.4688 45.9165 12.6252C46.4184 11.7817 47.0995 11.1157 47.9598 10.6274C48.8201 10.1241 49.7952 9.87256 50.8849 9.87256C51.9746 9.87256 52.9496 10.1168 53.8099 10.6051C54.6703 11.0935 55.3514 11.7669 55.8532 12.6252C56.3551 13.4688 56.606 14.4233 56.606 15.4889C56.606 16.5544 56.3551 17.5163 55.8532 18.3747C55.3514 19.2331 54.6703 19.9138 53.8099 20.417C52.9496 20.9054 51.9746 21.1496 50.8849 21.1496ZM50.8849 18.064C51.3581 18.064 51.7739 17.9604 52.1324 17.7532C52.4908 17.5312 52.7633 17.2278 52.9496 16.843C53.1504 16.4435 53.2508 15.992 53.2508 15.4889C53.2508 14.9857 53.1504 14.5491 52.9496 14.1792C52.7489 13.7944 52.4693 13.4984 52.1108 13.2912C51.7667 13.0692 51.3581 12.9582 50.8849 12.9582C50.426 12.9582 50.0174 13.0692 49.6589 13.2912C49.3005 13.4984 49.0208 13.7944 48.8201 14.1792C48.6193 14.564 48.519 15.0079 48.519 15.5111C48.519 15.9994 48.6193 16.4435 48.8201 16.843C49.0208 17.2278 49.3005 17.5312 49.6589 17.7532C50.0174 17.9604 50.426 18.064 50.8849 18.064Z" fill="#1320AE"/>
<path fill-rule="evenodd" clip-rule="evenodd" d="M59.2122 25.1231C60.0868 25.5374 61.0977 25.7446 62.2448 25.7446C63.3632 25.7446 64.3598 25.5152 65.2344 25.0564C66.1091 24.5977 66.7973 23.9614 67.2992 23.1474C67.801 22.3334 68.0523 21.3715 68.0523 20.2615V10.1167H64.8257V10.8415C64.5858 10.6331 64.3133 10.4581 64.0085 10.3165C63.4492 10.0353 62.8111 9.89465 62.0943 9.89465C61.1336 9.89465 60.2804 10.1315 59.5348 10.605C58.7891 11.0638 58.2013 11.7002 57.7711 12.5141C57.3409 13.3133 57.1259 14.216 57.1259 15.2224C57.1259 16.214 57.3409 17.1167 57.7711 17.9307C58.2013 18.7446 58.7891 19.3884 59.5348 19.862C60.2804 20.3355 61.1336 20.5723 62.0943 20.5723C62.7968 20.5723 63.4349 20.4318 64.0085 20.1506C64.2863 20.0143 64.5372 19.8538 64.7612 19.669V20.3503C64.7612 21.1051 64.5247 21.6897 64.0515 22.1041C63.5927 22.5185 62.9546 22.7256 62.1373 22.7256C61.4777 22.7256 60.9113 22.6072 60.4381 22.3704C59.9793 22.1337 59.5634 21.7858 59.1906 21.3271L57.1689 23.4138C57.6707 24.1537 58.3519 24.7235 59.2122 25.1231ZM63.9009 17.2425C63.5711 17.4497 63.1768 17.5533 62.718 17.5533C62.2591 17.5533 61.8576 17.4497 61.5135 17.2425C61.1837 17.0353 60.9256 16.7541 60.7393 16.3989C60.5528 16.029 60.4596 15.6368 60.4596 15.2224C60.4596 14.7784 60.5528 14.3789 60.7393 14.0237C60.9256 13.6685 61.1909 13.3873 61.535 13.1801C61.8791 12.9729 62.2735 12.8693 62.718 12.8693C63.1768 12.8693 63.5711 12.9729 63.9009 13.1801C64.245 13.3873 64.5031 13.6685 64.6752 14.0237C64.8616 14.3789 64.9548 14.7784 64.9548 15.2224C64.9548 15.6664 64.8616 16.0659 64.6752 16.4211C64.5031 16.7615 64.245 17.0353 63.9009 17.2425Z" fill="#1320AE"/>
<path fill-rule="evenodd" clip-rule="evenodd" d="M74.9777 21.1496C73.902 21.1496 72.9267 20.9054 72.0525 20.417C71.1919 19.9138 70.5109 19.2331 70.009 18.3747C69.5072 17.5163 69.2562 16.5544 69.2562 15.4889C69.2562 14.4233 69.5072 13.4688 70.009 12.6252C70.5109 11.7817 71.1919 11.1157 72.0525 10.6274C72.9125 10.1241 73.8878 9.87256 74.9777 9.87256C76.0669 9.87256 77.0422 10.1168 77.9021 10.6051C78.7628 11.0935 79.4437 11.7669 79.9456 12.6252C80.4475 13.4688 80.6984 14.4233 80.6984 15.4889C80.6984 16.5544 80.4475 17.5163 79.9456 18.3747C79.4437 19.2331 78.7628 19.9138 77.9021 20.417C77.0422 20.9054 76.0669 21.1496 74.9777 21.1496ZM74.9777 18.064C75.4504 18.064 75.8661 17.9604 76.2249 17.7532C76.583 17.5312 76.8557 17.2278 77.0422 16.843C77.2429 16.4435 77.3433 15.992 77.3433 15.4889C77.3433 14.9857 77.2429 14.5491 77.0422 14.1792C76.8414 13.7944 76.562 13.4984 76.2032 13.2912C75.8594 13.0692 75.4504 12.9582 74.9777 12.9582C74.5185 12.9582 74.1096 13.0692 73.7515 13.2912C73.3927 13.4984 73.1132 13.7944 72.9125 14.1792C72.7117 14.564 72.6114 15.0079 72.6114 15.5111C72.6114 15.9994 72.7117 16.4435 72.9125 16.843C73.1132 17.2278 73.3927 17.5312 73.7515 17.7532C74.1096 17.9604 74.5185 18.064 74.9777 18.064Z" fill="#1320AE"/>
<path fill-rule="evenodd" clip-rule="evenodd" d="M93.1065 21.1273C92.4045 21.1273 91.7589 20.9867 91.1709 20.7055C90.8616 20.5575 90.5822 20.3809 90.3326 20.1755V25.4561H87.0846V10.1167H90.3753V10.8613C90.614 10.6598 90.8792 10.4855 91.1709 10.3387C91.7589 10.0426 92.4045 9.89465 93.1065 9.89465C94.096 9.89465 94.9709 10.1389 95.7305 10.6273C96.505 11.1156 97.1073 11.7816 97.5373 12.6251C97.9822 13.4687 98.204 14.4307 98.204 15.511C98.204 16.5913 97.9822 17.5533 97.5373 18.3969C97.1073 19.2404 96.505 19.9063 95.7305 20.3947C94.9709 20.8831 94.096 21.1273 93.1065 21.1273ZM92.5049 18.0639C92.9776 18.0639 93.3866 17.9528 93.7305 17.7309C94.0892 17.5089 94.3687 17.2055 94.5694 16.8207C94.7702 16.4359 94.8705 15.9994 94.8705 15.511C94.8705 15.0078 94.7702 14.5639 94.5694 14.1791C94.3687 13.7943 94.0892 13.4983 93.7305 13.2911C93.3866 13.0691 92.9851 12.9581 92.5259 12.9581C92.0675 12.9581 91.6585 13.0691 91.3004 13.2911C90.9559 13.4983 90.6839 13.7943 90.4831 14.1791C90.2824 14.5639 90.182 15.0078 90.182 15.511C90.182 15.9994 90.2749 16.4359 90.4614 16.8207C90.6622 17.2055 90.9416 17.5089 91.3004 17.7309C91.6585 17.9528 92.06 18.0639 92.5049 18.0639Z" fill="#1320AE"/>
<path d="M101.425 20.9275C102.027 21.0903 102.636 21.1717 103.252 21.1717C104.557 21.1717 105.59 20.8609 106.35 20.2393C107.124 19.6178 107.511 18.7817 107.511 17.7309C107.511 17.0501 107.39 16.5025 107.145 16.0882C106.902 15.659 106.587 15.3186 106.199 15.067C105.812 14.8155 105.403 14.6156 104.973 14.4676C104.543 14.3196 104.134 14.1939 103.748 14.0903C103.36 13.9867 103.045 13.8683 102.801 13.7351C102.557 13.6019 102.435 13.4243 102.435 13.2023C102.435 12.9951 102.529 12.8397 102.715 12.7361C102.901 12.6177 103.181 12.5586 103.554 12.5586C103.941 12.5586 104.335 12.6399 104.736 12.8027C105.152 12.9655 105.525 13.2468 105.855 13.6463L107.726 11.6928C107.253 11.0712 106.637 10.605 105.877 10.2943C105.131 9.96873 104.314 9.80591 103.425 9.80591C102.579 9.80591 101.84 9.95389 101.21 10.2498C100.578 10.5459 100.091 10.9529 99.7468 11.4708C99.4029 11.9739 99.2307 12.5734 99.2307 13.2689C99.2307 13.9201 99.3527 14.4603 99.5962 14.8894C99.8397 15.3038 100.156 15.6294 100.542 15.8662C100.93 16.103 101.339 16.288 101.769 16.4211C102.199 16.5543 102.608 16.6801 102.995 16.7986C103.381 16.9022 103.697 17.0279 103.941 17.1759C104.199 17.3091 104.328 17.5089 104.328 17.7753C104.328 17.9825 104.22 18.1452 104.005 18.2637C103.805 18.382 103.511 18.4412 103.124 18.4412C102.564 18.4412 102.048 18.3376 101.575 18.1304C101.102 17.9085 100.693 17.6051 100.349 17.2203L98.4778 19.1738C98.8366 19.5734 99.2666 19.9286 99.7685 20.2393C100.285 20.5353 100.837 20.7647 101.425 20.9275Z" fill="#1320AE"/>
<path d="M113.512 21.1495C112.552 21.1495 111.698 20.9497 110.953 20.5501C110.221 20.1357 109.648 19.5733 109.232 18.863C108.816 18.1379 108.608 17.3091 108.608 16.3767V10.1167H111.899V16.3323C111.899 16.7023 111.956 17.0205 112.071 17.2869C112.2 17.5533 112.387 17.7605 112.63 17.9085C112.874 18.0564 113.168 18.1304 113.512 18.1304C114 18.1304 114.387 17.975 114.674 17.6642C114.961 17.3387 115.104 16.8947 115.104 16.3323V10.1167H118.394V16.3545C118.394 17.3017 118.187 18.1379 117.77 18.863C117.355 19.5733 116.782 20.1357 116.05 20.5501C115.319 20.9497 114.473 21.1495 113.512 21.1495Z" fill="#1320AE"/>
<path d="M123.321 10.1167H120.03V20.9053H123.321V14.6008C123.321 14.2309 123.393 13.9201 123.536 13.6685C123.694 13.4169 123.902 13.2245 124.16 13.0913C124.418 12.9433 124.712 12.8693 125.042 12.8693C125.515 12.8693 125.909 13.0247 126.224 13.3355C126.555 13.6315 126.72 14.0533 126.72 14.6008V20.9053H130.01V14.6008C130.01 14.2309 130.082 13.9201 130.225 13.6685C130.383 13.4169 130.591 13.2245 130.849 13.0913C131.107 12.9433 131.401 12.8693 131.731 12.8693C132.204 12.8693 132.598 13.0247 132.914 13.3355C133.243 13.6315 133.408 14.0533 133.408 14.6008V20.9053H136.7V14.2235C136.7 13.3207 136.513 12.5512 136.14 11.9148C135.781 11.2636 135.287 10.7678 134.656 10.4275C134.04 10.0722 133.33 9.89465 132.527 9.89465C131.709 9.89465 130.971 10.0797 130.311 10.4497C129.883 10.6854 129.508 10.9896 129.188 11.3623C128.889 10.9724 128.525 10.6535 128.096 10.4052C127.523 10.0649 126.87 9.89465 126.139 9.89465C125.365 9.89465 124.669 10.0649 124.053 10.4052C123.784 10.5468 123.541 10.7165 123.321 10.9141V10.1167Z" fill="#1320AE"/>
</g>
<defs>
<clipPath id="clip0_49_9078">
<rect width="137" height="28" fill="white"/>
</clipPath>
</defs>
</svg>
