<svg width="72" height="22" viewBox="0 0 72 22" fill="none" xmlns="http://www.w3.org/2000/svg">
<g clip-path="url(#clip0_49_9157)">
<g clip-path="url(#clip1_49_9157)">
<g clip-path="url(#clip2_49_9157)">
<mask id="mask0_49_9157" style="mask-type:luminance" maskUnits="userSpaceOnUse" x="0" y="0" width="71" height="22">
<path d="M70.9268 0.282227H0.573882V21.7179H70.9268V0.282227Z" fill="white"/>
</mask>
<g mask="url(#mask0_49_9157)">
<path d="M70.3069 11.0128C70.3069 16.8923 66.3923 21.111 60.6314 21.111C55.1833 21.111 51.1371 17.2374 51.1371 11.0128C51.1371 4.3288 55.9446 0.888672 60.8126 0.888672C65.4799 0.888672 70.3069 4.14763 70.3069 11.0128ZM65.5943 11.0128C65.5943 8.2046 64.2355 4.95212 60.7091 4.95212C57.5083 4.95212 55.826 7.6999 55.826 11.0128C55.826 14.7355 57.9009 17.0777 60.7091 17.0777C64.2355 17.0777 65.5943 13.8554 65.5943 11.0128Z" fill="#EE003B"/>
<path d="M49.4092 19.2734C48.2575 20.0456 45.8311 21.0916 42.5225 21.0916C36.024 21.0916 32.8125 16.6075 32.8125 11.1271C32.8125 4.95859 37.1779 0.888672 42.8826 0.888672C45.7059 0.888672 47.5199 1.35886 49.1266 2.14825L47.4788 5.94857C46.2516 5.43309 44.8389 5.13113 43.1652 5.13113C39.0435 5.13113 37.6437 7.59853 37.6437 11.0041C37.6437 14.6794 39.5202 17.0648 42.7943 17.0648C43.9762 17.0648 44.867 16.8103 45.1387 16.6335V13.2127H41.8193L41.8237 9.34339H49.4092V19.2734Z" fill="#EE003B"/>
<path d="M27.2093 20.7742C26.5665 18.4191 25.4838 16.6267 24.5931 15.4814C23.8425 14.5152 23.258 14.3082 23.258 14.3082C22.6497 14.3254 22.2313 14.3254 21.6748 14.2973V20.7742H17.1369V1.40822C18.0923 1.25077 18.7761 1.16881 19.7811 1.07606C20.7043 0.989792 21.746 0.933716 22.902 0.933716C24.4334 0.933716 25.734 1.1041 26.7972 1.44057C27.8693 1.77703 28.7385 2.24074 29.4156 2.82955C30.108 3.41621 30.6084 4.14521 30.9104 4.94755C31.2295 5.73048 31.3891 6.56517 31.3891 7.45593C31.3891 8.62708 31.1045 9.76804 30.4789 10.7386C29.9226 11.6035 28.993 12.4878 28.0267 13.0981V13.1845C30.1835 14.1702 31.4021 17.3449 32.5862 20.7742H27.2093ZM26.8382 7.56593C26.8382 6.74849 26.5406 6.09067 25.9561 5.64635C25.3695 5.18264 24.5607 4.95617 23.5837 4.94324C23.4736 4.93893 23.053 4.9454 22.8007 4.95402C22.5483 4.9605 21.8819 5.02088 21.6748 5.05971V10.6394C21.9768 10.6739 22.6066 10.7019 23.1155 10.7019C24.2026 10.7019 25.2098 10.4021 25.8505 9.90607C26.4932 9.3906 26.8382 8.56238 26.8382 7.56593Z" fill="#EE003B"/>
<path d="M1.19383 16.1376V1.20813H14.5209L14.523 5.37078H5.73178V8.72033H13.1728L13.1749 12.6737H5.73178V14.7658C5.73178 16.0815 6.50392 16.6359 7.51114 16.6359C9.55365 16.6359 14.881 16.6359 14.881 16.6359L14.8874 20.7747H5.79648C2.39087 20.7747 1.19383 19.2024 1.19383 16.1376Z" fill="#EE003B"/>
</g>
</g>
</g>
</g>
<defs>
<clipPath id="clip0_49_9157">
<rect width="71.4522" height="21.4357" fill="white" transform="translate(0.131958 0.282227)"/>
</clipPath>
<clipPath id="clip1_49_9157">
<rect width="71.4522" height="21.4357" fill="white" transform="translate(0.131958 0.282227)"/>
</clipPath>
<clipPath id="clip2_49_9157">
<rect width="71.4522" height="21.4357" fill="white" transform="translate(0.131958 0.282227)"/>
</clipPath>
</defs>
</svg>
