<svg width="109" height="22" viewBox="0 0 109 22" fill="none" xmlns="http://www.w3.org/2000/svg">
<g clip-path="url(#clip0_49_9168)">
<g clip-path="url(#clip1_49_9168)">
<g clip-path="url(#clip2_49_9168)">
<mask id="mask0_49_9168" style="mask-type:luminance" maskUnits="userSpaceOnUse" x="0" y="0" width="109" height="22">
<path d="M108.004 0.282227H0.384201V21.7179H108.004V0.282227Z" fill="white"/>
</mask>
<g mask="url(#mask0_49_9168)">
<path d="M2.11671 0.282227V5.4458H13.0214C8.50325 9.896 0.384201 17.9132 0.384201 17.9132L4.01909 21.6159C4.01909 21.6159 13.5309 12.0362 18.6606 6.94054V21.514H23.6882V0.282227H2.11671Z" fill="#FF0033"/>
<path d="M17.0985 18.1509C17.0985 16.2825 15.5698 14.7538 13.7014 14.7538C11.833 14.7538 10.3043 16.2825 10.3043 18.1509C10.3043 20.0193 11.833 21.5479 13.7014 21.5479C15.5698 21.5479 17.0985 20.0193 17.0985 18.1509Z" fill="#FF0033"/>
<path d="M95.8763 9.18254C95.7064 9.45431 95.2987 9.72608 94.7892 9.72608C94.1098 9.72608 93.8719 9.35239 93.8719 8.94475C93.8719 8.46915 94.1776 8.19738 94.7892 8.19738C95.3327 8.19738 95.6044 8.26532 95.8763 8.43517V9.18254ZM97.439 10.9151V6.90649C97.439 5.58162 96.4538 4.80029 95.027 4.80029C94.0758 4.80029 93.4982 5.00411 92.7849 5.41177L93.3963 6.49883C93.9399 6.1931 94.3135 6.09118 95.027 6.09118C95.6044 6.09118 95.8763 6.43089 95.8763 6.83854V7.14428C95.6385 7.0084 95.2648 6.90649 94.7213 6.90649C93.3624 6.90649 92.3093 7.55193 92.3093 8.8768C92.3093 10.3036 93.4304 11.017 94.5513 11.017C95.095 11.017 95.6044 10.7792 95.8763 10.5074V10.9151H97.439Z" fill="black"/>
<path d="M106.442 10.9151V4.66445L104.777 5.5477V4.019L106.714 2.99988H108.038V10.9491H106.442V10.9151Z" fill="black"/>
<path d="M38.6352 5.51364C38.6352 6.19307 38.2276 6.53277 37.5141 6.53277H35.8496V4.49452H37.5141C38.1936 4.49452 38.6352 4.83422 38.6352 5.51364ZM40.2998 5.47968C40.2998 3.78113 39.0768 2.96582 37.5482 2.96582H34.2529V10.915H35.8496V8.09543H37.4123C39.0768 8.09543 40.2998 7.3141 40.2998 5.47968Z" fill="black"/>
<path d="M44.3088 6.77067C44.071 6.53287 43.7653 6.39698 43.3916 6.39698C42.7801 6.39698 42.3725 6.66875 42.3725 7.68787V10.9151H40.8098V4.9702H42.3725V5.37786C42.6442 5.10609 43.0519 4.86829 43.5954 4.86829C44.105 4.86829 44.4787 5.07212 44.6825 5.27594L44.3088 6.77067Z" fill="black"/>
<path d="M48.7245 7.92561C48.7245 8.74092 48.3508 9.52225 47.6034 9.52225C46.856 9.52225 46.5164 8.84283 46.5164 7.92561C46.5164 7.00839 46.856 6.32898 47.6034 6.32898C48.3508 6.32898 48.7245 7.04237 48.7245 7.92561ZM50.3211 7.92561C50.3211 6.09118 49.1661 4.80029 47.6034 4.80029C46.0408 4.80029 44.9198 6.09118 44.9198 7.92561C44.9198 9.76004 46.0408 11.017 47.6034 11.017C49.1661 11.0509 50.3211 9.76004 50.3211 7.92561Z" fill="black"/>
<path d="M53.9223 11.051C52.5974 11.051 51.4424 10.5075 50.8309 9.62422L51.9859 8.6051C52.5294 9.25054 53.2429 9.52231 54.0242 9.52231C54.9754 9.52231 55.4171 9.25054 55.4171 8.67304C55.4171 8.16348 55.1453 7.92568 53.6505 7.58597C52.1898 7.24626 51.1707 6.77067 51.1707 5.208C51.1707 3.78122 52.4276 2.86401 54.0242 2.86401C55.2471 2.86401 56.1643 3.3396 56.9117 4.12094L55.7567 5.24198C55.2471 4.73242 54.6697 4.42667 53.9562 4.42667C53.107 4.42667 52.8353 4.80036 52.8353 5.14006C52.8353 5.64963 53.1749 5.78552 54.4319 6.09125C55.6888 6.39699 57.0815 6.80464 57.0815 8.53716C57.0476 10.0319 56.0964 11.051 53.9223 11.051Z" fill="black"/>
<path d="M58.9841 4.46046C58.5085 4.46046 58.1008 4.05281 58.1008 3.57721C58.1008 3.10162 58.5085 2.69397 58.9841 2.69397C59.4597 2.69397 59.8674 3.10162 59.8674 3.57721C59.8674 4.05281 59.4597 4.46046 58.9841 4.46046ZM58.2028 10.9149V4.97002H59.7654V10.9489H58.2028V10.9149Z" fill="black"/>
<path d="M64.6231 7.2462H62.585C62.6529 6.63472 62.9926 6.1931 63.5701 6.1931C64.2835 6.1931 64.5892 6.73664 64.6231 7.2462ZM66.1519 7.92561C66.1519 6.22706 65.2347 4.80029 63.6381 4.80029C62.1433 4.80029 60.9883 6.09118 60.9883 7.92561C60.9883 9.79402 62.0754 11.017 63.8079 11.017C64.5892 11.017 65.4725 10.6773 65.948 10.0658L64.827 9.14856C64.5892 9.42033 64.2495 9.55622 63.8079 9.55622C63.2304 9.55622 62.6529 9.25048 62.585 8.43517H66.1519C66.1519 8.33326 66.1519 8.16341 66.1519 7.92561Z" fill="black"/>
<path d="M70.9084 8.0276C70.9084 9.01276 70.5688 9.5563 69.9912 9.5563C69.5496 9.5563 69.1759 9.38645 68.9381 9.04674V6.80465C69.1759 6.49892 69.4137 6.29509 69.8893 6.29509C70.5008 6.29509 70.9084 6.80465 70.9084 8.0276ZM72.5051 7.99364C72.5051 5.75155 71.4519 4.80037 70.1951 4.80037C69.6175 4.80037 69.2438 5.03816 68.9381 5.30993V2.72815H67.3754V10.9151H68.9381V10.5754C69.2099 10.8472 69.6855 11.051 70.1951 11.051C71.6558 11.051 72.5051 9.79409 72.5051 7.99364Z" fill="black"/>
<path d="M76.9203 7.2462H74.8821C74.9501 6.63472 75.2897 6.1931 75.8673 6.1931C76.5467 6.1931 76.8864 6.73664 76.9203 7.2462ZM78.4491 7.92561C78.4491 6.22706 77.5319 4.80029 75.9351 4.80029C74.4405 4.80029 73.2855 6.09118 73.2855 7.92561C73.2855 9.79402 74.3725 11.017 76.1051 11.017C76.8864 11.017 77.7696 10.6773 78.2452 10.0658L77.1241 9.14856C76.8864 9.42033 76.5467 9.55622 76.1051 9.55622C75.5275 9.55622 74.9501 9.25048 74.8821 8.43517H78.4491C78.4491 8.33326 78.4491 8.16341 78.4491 7.92561Z" fill="black"/>
<path d="M83.1373 10.9151V7.68787C83.1373 6.63478 82.7636 6.29507 82.1182 6.29507C81.4727 6.29507 81.099 6.60081 81.099 7.65391V10.9151H79.5364V4.9702H81.099V5.37786C81.3708 5.10609 81.8804 4.86829 82.4919 4.86829C84.0206 4.86829 84.7 5.92138 84.7 7.58597V10.9491H83.1373V10.9151Z" fill="black"/>
<path d="M88.5053 11.051C87.1805 11.051 86.0254 10.5075 85.414 9.62422L86.5691 8.6051C87.1126 9.25054 87.8259 9.52231 88.6072 9.52231C89.5585 9.52231 90.0001 9.25054 90.0001 8.67304C90.0001 8.16348 89.7283 7.92568 88.2335 7.58597C86.7728 7.24626 85.7537 6.77067 85.7537 5.208C85.7537 3.78122 87.0106 2.86401 88.6072 2.86401C89.8303 2.86401 90.7475 3.3396 91.4949 4.12094L90.3398 5.24198C89.8303 4.73242 89.2527 4.42667 88.5394 4.42667C87.69 4.42667 87.4183 4.80036 87.4183 5.14006C87.4183 5.64963 87.758 5.78552 89.0149 6.09125C90.2718 6.39699 91.6647 6.80464 91.6647 8.53716C91.6307 10.0319 90.6795 11.051 88.5053 11.051Z" fill="black"/>
<path d="M40.2664 21.5139V16.1465V15.2972C40.1984 15.603 39.9605 16.1804 39.7907 16.6221L37.6506 21.7517L35.5443 16.6221C35.3745 16.2144 35.1706 15.603 35.0688 15.2972V16.1465V21.5139H34.2195V13.5647H35.2047L37.073 18.3207C37.2769 18.7962 37.5487 19.5436 37.6506 19.8493C37.7524 19.5096 38.0242 18.7622 38.2281 18.3207L40.1305 13.5647H41.0816V21.5139H40.2664Z" fill="black"/>
<path d="M46.5844 18.1507H43.3571C43.459 16.8258 44.0706 16.1804 44.9538 16.1804C46.0069 16.1804 46.5165 16.9958 46.5844 18.1507ZM47.3657 18.3545C47.3657 16.656 46.5165 15.4331 44.9538 15.4331C43.527 15.4331 42.474 16.6221 42.474 18.5244C42.474 20.8684 43.7988 21.6497 44.8858 21.6497C45.7691 21.6497 46.3126 21.412 47.0261 20.9703L46.6183 20.3588C46.0748 20.7325 45.6672 20.9364 44.9878 20.9364C44.0026 20.9364 43.4251 20.1211 43.3232 18.8641H47.2978C47.3657 18.6943 47.3657 18.5584 47.3657 18.3545Z" fill="black"/>
<path d="M52.3593 20.0532C51.9517 20.5627 51.408 20.9025 50.7966 20.9025C49.8454 20.9025 49.3019 20.1212 49.3019 18.6264C49.3019 17.0298 49.7775 16.1804 50.7626 16.1804C51.476 16.1804 52.0535 16.5881 52.3593 17.0637V20.0532ZM53.2085 21.5139V13.5647H52.3593V16.2484C51.9517 15.7728 51.4421 15.4671 50.6947 15.4671C49.4377 15.4671 48.4527 16.5541 48.4527 18.6603C48.4527 20.7666 49.4038 21.6838 50.5928 21.6838C51.408 21.6838 51.9517 21.2761 52.3932 20.8345V21.5479H53.2085V21.5139Z" fill="black"/>
<path d="M55.5533 14.4819C55.2137 14.4819 54.942 14.2102 54.942 13.8704C54.942 13.5308 55.2137 13.259 55.5533 13.259C55.8592 13.259 56.1309 13.5308 56.1309 13.8704C56.1309 14.2102 55.8592 14.4819 55.5533 14.4819ZM55.0778 21.5139V15.5691H55.927V21.5139H55.0778Z" fill="black"/>
<path d="M61.2602 20.0531C60.8865 20.5627 60.309 20.9364 59.5616 20.9364C58.8483 20.9364 58.3387 20.5627 58.3387 19.6794C58.3387 18.932 58.8483 18.5244 59.7315 18.5244C60.4449 18.5244 60.8865 18.6602 61.2602 18.8641V20.0531ZM62.1095 21.5138V17.3693C62.1095 15.9766 61.2942 15.4331 60.0033 15.4331C59.2219 15.4331 58.5426 15.6369 57.9989 15.9086L58.3047 16.588C58.7803 16.3163 59.2898 16.1464 59.9353 16.1464C60.8185 16.1464 61.2262 16.588 61.2262 17.4713V18.1847C60.8865 17.9809 60.343 17.845 59.7315 17.845C58.5426 17.845 57.4554 18.4225 57.4554 19.7474C57.4554 21.1742 58.4406 21.6497 59.3578 21.6497C60.207 21.6497 60.7846 21.242 61.2262 20.8005V21.5138H62.1095Z" fill="black"/>
<path d="M102.501 10.8471C102.501 10.8471 101.583 11.0509 100.972 11.0509C100.021 11.0509 99.3752 10.3035 99.3752 9.25045V6.43086H98.3901V4.97011H99.3752V2.96582H100.938V4.97011H102.365V6.43086H100.938V8.8428C100.938 9.55619 101.142 9.59015 101.515 9.59015C101.787 9.59015 102.263 9.52222 102.467 9.48824V10.8471H102.501Z" fill="black"/>
<path d="M104.472 11.0511C103.928 11.0511 103.453 10.5755 103.453 10.0319C103.453 9.4884 103.928 9.01282 104.472 9.01282C105.015 9.01282 105.491 9.4884 105.491 10.0319C105.457 10.5755 105.015 11.0511 104.472 11.0511Z" fill="black"/>
<path d="M67.5786 21.6499C66.4914 21.6499 65.5064 21.1743 64.8609 20.5288L65.4723 19.8494C66.0838 20.427 66.7973 20.8346 67.6125 20.8346C68.6996 20.8346 69.345 20.2911 69.345 19.4418C69.345 18.6944 68.9034 18.2528 67.4086 17.7432C65.6762 17.1317 65.0647 16.5543 65.0647 15.3993C65.0647 14.1084 66.0838 13.327 67.5786 13.327C68.6656 13.327 69.345 13.6668 70.0245 14.1764L69.4469 14.8897C68.8695 14.4141 68.3259 14.1423 67.5106 14.1423C66.3896 14.1423 65.9479 14.6858 65.9479 15.3313C65.9479 16.0108 66.2537 16.3845 67.8503 16.9619C69.6508 17.6074 70.1943 18.2189 70.1943 19.4078C70.2622 20.6647 69.2771 21.6499 67.5786 21.6499Z" fill="black"/>
<path d="M71.791 21.5141V13.4291H76.6829V14.2443H72.7083V16.7922H75.0183V17.6075H72.7083V20.6989H76.8527V21.5141H71.791Z" fill="black"/>
</g>
</g>
</g>
</g>
<defs>
<clipPath id="clip0_49_9168">
<rect width="108.369" height="21.4357" fill="white" transform="translate(0.384201 0.282227)"/>
</clipPath>
<clipPath id="clip1_49_9168">
<rect width="108.369" height="21.4357" fill="white" transform="translate(0.384201 0.282227)"/>
</clipPath>
<clipPath id="clip2_49_9168">
<rect width="108.369" height="21.4357" fill="white" transform="translate(0.384201 0.282227)"/>
</clipPath>
</defs>
</svg>
