<svg width="32" height="32" viewBox="0 0 32 32" fill="none" xmlns="http://www.w3.org/2000/svg">
<g clip-path="url(#clip0_49_9102)">
<g clip-path="url(#clip1_49_9102)">
<g clip-path="url(#clip2_49_9102)">
<path d="M30.8917 19.3162C30.8917 17.0599 30.273 14.9503 29.1994 13.1419C29.6947 9.6288 28.7695 6.41336 26.3774 4.54418C25.4378 3.80938 24.3509 3.34633 23.1771 3.13446C21.2588 1.12851 18.8666 -0.0443079 16.2913 0.00128193C14.5052 0.033463 12.8282 0.649374 11.3542 1.71403C9.20161 1.71761 7.15187 2.30402 5.40515 3.53494C-0.247992 7.52182 -0.58768 16.7676 4.64174 24.1836C9.87385 31.6004 18.3625 33.8576 24.5046 30.4419C25.5916 29.8367 26.4766 29.0286 27.1676 28.0686C29.4882 25.8284 30.8908 22.6881 30.8908 19.3162" fill="white"/>
<g style="mix-blend-mode:multiply">
<mask id="mask0_49_9102" style="mask-type:luminance" maskUnits="userSpaceOnUse" x="0" y="1" width="30" height="31">
<g style="mix-blend-mode:multiply">
<path d="M29.0752 1.71484H0.931957V31.9999H29.0752V1.71484Z" fill="white"/>
</g>
</mask>
<g mask="url(#mask0_49_9102)">
<mask id="mask1_49_9102" style="mask-type:luminance" maskUnits="userSpaceOnUse" x="0" y="1" width="30" height="31">
<g style="mix-blend-mode:multiply">
<path d="M25.1146 9.74287C30.3476 17.1606 30.6461 27.025 24.5049 30.4415C18.3628 33.8581 9.87411 31.6018 4.64204 24.1842C-0.588277 16.7673 -0.247693 7.52147 5.40545 3.53459C11.0622 -0.453181 19.8852 2.32691 25.1146 9.74287Z" fill="white"/>
</g>
</mask>
<g mask="url(#mask1_49_9102)">
<path d="M16.0417 -16.0354L-17.7079 15.5911L14.0152 49.4437L47.7647 17.8172L16.0417 -16.0354Z" fill="url(#paint0_linear_49_9102)"/>
</g>
</g>
</g>
<g style="mix-blend-mode:multiply">
<mask id="mask2_49_9102" style="mask-type:luminance" maskUnits="userSpaceOnUse" x="5" y="0" width="23" height="31">
<g style="mix-blend-mode:multiply">
<path d="M27.6483 0.000366211H5.47727V30.0548H27.6483V0.000366211Z" fill="white"/>
</g>
</mask>
<g mask="url(#mask2_49_9102)">
<mask id="mask3_49_9102" style="mask-type:luminance" maskUnits="userSpaceOnUse" x="5" y="0" width="23" height="31">
<g style="mix-blend-mode:multiply">
<path d="M27.6446 14.8279C27.7921 23.127 22.9533 29.945 16.8327 30.055C10.712 30.1649 5.62915 23.5266 5.47987 15.2293C5.32969 6.92927 10.1694 0.112236 16.2919 0.00317764C22.4107 -0.106775 27.4944 6.53057 27.6446 14.8279Z" fill="white"/>
</g>
</mask>
<g mask="url(#mask3_49_9102)">
<path d="M38.9667 4.57015L24.3216 38.1145L-5.84457 25.4869L8.80139 -8.05737L38.9667 4.57015Z" fill="url(#paint1_linear_49_9102)"/>
</g>
</g>
</g>
<g style="mix-blend-mode:multiply">
<mask id="mask4_49_9102" style="mask-type:luminance" maskUnits="userSpaceOnUse" x="6" y="2" width="24" height="26">
<g style="mix-blend-mode:multiply">
<path d="M29.3304 2.99756H6.69368V27.5079H29.3304V2.99756Z" fill="white"/>
</g>
</mask>
<g mask="url(#mask4_49_9102)">
<mask id="mask5_49_9102" style="mask-type:luminance" maskUnits="userSpaceOnUse" x="6" y="2" width="24" height="26">
<g style="mix-blend-mode:multiply">
<path d="M25.6359 21.2084C21.0143 27.1225 13.8577 29.2492 9.64815 25.9595C5.43513 22.6699 5.76857 15.2093 10.3874 9.29598C15.0099 3.38182 22.1702 1.25429 26.3778 4.54392C30.5891 7.83353 30.2557 15.2951 25.6359 21.2084Z" fill="white"/>
</g>
</mask>
<g mask="url(#mask5_49_9102)">
<path d="M30.4647 -0.512329L3.46858 1.39437L5.56075 31.0166L32.5569 29.1099L30.4647 -0.512329Z" fill="url(#paint2_linear_49_9102)"/>
</g>
</g>
</g>
<path d="M30.8916 19.3162C30.8916 25.8043 25.7113 31.4369 18.7682 31.4369C11.8252 31.4369 6.64758 26.0099 6.64758 19.3162C6.64758 12.6226 12.0755 7.1947 18.7682 7.1947C25.461 7.1947 30.8916 12.6217 30.8916 19.3162Z" fill="white"/>
<mask id="mask6_49_9102" style="mask-type:luminance" maskUnits="userSpaceOnUse" x="10" y="16" width="5" height="7">
<path d="M12.1409 19.6693C12.0774 19.664 12.0327 19.655 12.0041 19.6452V18.02C12.0478 18.0129 12.0908 18.0111 12.1337 18.0111H12.2454C12.3634 18.0111 12.4761 18.0245 12.5834 18.0513C12.6906 18.0781 12.7845 18.1255 12.8658 18.1925C12.9462 18.2587 13.0089 18.3472 13.0562 18.4572C13.1018 18.5671 13.1242 18.703 13.1242 18.8648C13.1242 19.1384 13.0509 19.3412 12.9061 19.4762C12.7621 19.6112 12.5735 19.6783 12.3429 19.6783C12.2731 19.6783 12.2061 19.6756 12.1418 19.6693M11.1808 16.8561C10.926 16.8856 10.7374 16.908 10.614 16.9241V22.6728C10.893 22.7203 11.1262 22.7444 11.314 22.7444C11.4114 22.7444 11.5142 22.739 11.6286 22.7292C11.7404 22.7184 11.8673 22.6997 12.0067 22.6738V20.7974C12.0506 20.8091 12.1238 20.8171 12.2285 20.826C12.333 20.8332 12.4358 20.8368 12.5386 20.8368C12.7961 20.8368 13.0473 20.8055 13.2913 20.742C13.5362 20.6768 13.7526 20.5704 13.9438 20.4193C14.1334 20.2692 14.2871 20.0689 14.4025 19.815C14.5178 19.5629 14.575 19.2474 14.575 18.8656C14.575 18.4366 14.5017 18.0871 14.3578 17.8189C14.2138 17.5516 14.0226 17.3433 13.7892 17.1949C13.5577 17.0484 13.2949 16.9473 13.0053 16.8937C12.7166 16.8419 12.4287 16.8132 12.1426 16.8132C11.7565 16.8132 11.4355 16.8284 11.1817 16.8588" fill="white"/>
</mask>
<g mask="url(#mask6_49_9102)">
<path d="M14.5725 16.8105H10.6124V22.7435H14.5725V16.8105Z" fill="url(#paint3_linear_49_9102)"/>
</g>
<mask id="mask7_49_9102" style="mask-type:luminance" maskUnits="userSpaceOnUse" x="14" y="18" width="5" height="5">
<path d="M16.3917 21.4159C16.2791 21.2327 16.2228 20.9734 16.2228 20.6356C16.2228 20.2976 16.2791 20.0295 16.3917 19.8462C16.5061 19.6638 16.6796 19.5727 16.9156 19.5727C17.1516 19.5727 17.3268 19.6638 17.443 19.8462C17.5583 20.0295 17.6155 20.2914 17.6155 20.6356C17.6155 20.9797 17.5583 21.2327 17.443 21.4159C17.3276 21.5983 17.1524 21.6895 16.9156 21.6895C16.6787 21.6895 16.5061 21.5983 16.3917 21.4159ZM16.0208 18.5929C15.7633 18.6993 15.5479 18.8477 15.3717 19.0399C15.1992 19.2339 15.0669 19.4663 14.9793 19.7372C14.8891 20.0071 14.8452 20.3075 14.8452 20.6346C14.8452 20.9618 14.8891 21.2514 14.9793 21.516C15.0669 21.7816 15.1992 22.0104 15.3717 22.2008C15.547 22.3903 15.7633 22.5369 16.0208 22.6388C16.2782 22.7416 16.5768 22.7925 16.9147 22.7925C17.2526 22.7925 17.5592 22.7416 17.8166 22.6388C18.074 22.5369 18.2886 22.3903 18.4638 22.2008C18.6381 22.0095 18.7704 21.7816 18.8598 21.516C18.9474 21.2514 18.9912 20.9564 18.9912 20.6346C18.9912 20.3128 18.9474 20.0071 18.8598 19.7372C18.7704 19.4663 18.6381 19.2339 18.4638 19.0399C18.2895 18.8468 18.075 18.6993 17.8166 18.5929C17.5592 18.4892 17.257 18.4365 16.9147 18.4365C16.5723 18.4365 16.2782 18.4892 16.0208 18.5929Z" fill="white"/>
</mask>
<g mask="url(#mask7_49_9102)">
<path d="M18.9912 18.4375H14.846V22.7936H18.9912V18.4375Z" fill="url(#paint4_linear_49_9102)"/>
</g>
<mask id="mask8_49_9102" style="mask-type:luminance" maskUnits="userSpaceOnUse" x="19" y="18" width="4" height="5">
<path d="M20.5665 18.5339C20.3546 18.5974 20.1705 18.6913 20.0141 18.811C19.8585 18.9318 19.7378 19.0783 19.6529 19.25C19.568 19.4225 19.5233 19.6138 19.5233 19.8221C19.5233 20.1546 19.6171 20.4174 19.8049 20.6105C19.9935 20.8045 20.2304 20.9413 20.5146 21.0208L21.0608 21.1737C21.1537 21.2005 21.2333 21.2326 21.303 21.2666C21.3737 21.3024 21.4077 21.3542 21.4077 21.424C21.4077 21.4767 21.3907 21.5214 21.3558 21.5527C21.3209 21.5849 21.2771 21.6108 21.2244 21.6296C21.1699 21.6474 21.1073 21.6609 21.0376 21.6662C20.9678 21.6707 20.9017 21.6734 20.8373 21.6734C20.6487 21.6734 20.461 21.6546 20.2724 21.6135C20.0846 21.5733 19.9049 21.5134 19.7342 21.4329C19.5626 21.8083 19.4633 22.1784 19.4374 22.5431C19.6841 22.6343 19.9166 22.6987 20.1374 22.7371C20.3573 22.7738 20.596 22.7934 20.8534 22.7934C21.1636 22.7934 21.4398 22.755 21.6794 22.6799C21.9172 22.6048 22.1192 22.503 22.2819 22.3742C22.4464 22.2455 22.5697 22.0918 22.652 21.9156C22.736 21.7386 22.7789 21.5482 22.7789 21.3435C22.7789 21.1388 22.7512 20.9761 22.6967 20.8358C22.6439 20.6981 22.5697 20.5792 22.4768 20.4836C22.382 20.387 22.2703 20.3084 22.138 20.2458C22.0065 20.1841 21.86 20.1314 21.6991 20.0885L21.1761 19.9517C21.1001 19.9311 21.0331 19.9043 20.975 19.8722C20.9151 19.8399 20.8874 19.7943 20.8874 19.7345C20.8874 19.5959 21.0125 19.5253 21.2655 19.5253C21.4372 19.5253 21.6249 19.5503 21.8287 19.5995C22.0316 19.6469 22.2068 19.7014 22.3534 19.7604C22.4285 19.6102 22.4937 19.4368 22.5537 19.2419C22.6117 19.0443 22.6475 18.8611 22.6573 18.6886C22.4222 18.609 22.1836 18.5465 21.9413 18.5044C21.7 18.4606 21.4773 18.4392 21.2736 18.4392C21.017 18.4392 20.7819 18.4714 20.5692 18.5366" fill="white"/>
</mask>
<g mask="url(#mask8_49_9102)">
<path d="M22.7774 18.4375H19.4359V22.7936H22.7774V18.4375Z" fill="url(#paint5_linear_49_9102)"/>
</g>
<mask id="mask9_49_9102" style="mask-type:luminance" maskUnits="userSpaceOnUse" x="23" y="18" width="4" height="5">
<path d="M23.1298 18.5339C23.1039 18.6403 23.0851 18.7395 23.0779 18.8307C23.0699 18.9237 23.0663 19.0113 23.0663 19.0971C23.0663 19.1829 23.0699 19.2723 23.0779 19.3671C23.086 19.46 23.1039 19.5611 23.1298 19.6683H24.3223V22.6871C24.4572 22.7076 24.5788 22.7246 24.6932 22.7354C24.8059 22.747 24.9078 22.7505 24.999 22.7505C25.0902 22.7505 25.192 22.7461 25.3047 22.7354C25.4164 22.7237 25.5425 22.7076 25.6828 22.6871V19.6683H26.8753C26.9012 19.5611 26.92 19.46 26.9271 19.3671C26.9361 19.2723 26.9387 19.1829 26.9387 19.0971C26.9387 19.0113 26.9361 18.9237 26.9271 18.8307C26.9191 18.7395 26.9012 18.6403 26.8753 18.5339H23.1307H23.1298Z" fill="white"/>
</mask>
<g mask="url(#mask9_49_9102)">
<path d="M26.937 18.5339H23.0663V22.7523H26.937V18.5339Z" fill="url(#paint6_linear_49_9102)"/>
</g>
</g>
</g>
</g>
<defs>
<linearGradient id="paint0_linear_49_9102" x1="21.4774" y1="23.4281" x2="7.28357" y2="8.28148" gradientUnits="userSpaceOnUse">
<stop stop-color="#FABB00"/>
<stop offset="0.27" stop-color="#FABF00"/>
<stop offset="0.57" stop-color="#FBCC00"/>
<stop offset="0.89" stop-color="#FEE300"/>
<stop offset="1" stop-color="#FFED00"/>
</linearGradient>
<linearGradient id="paint1_linear_49_9102" x1="13.8793" y1="22.2298" x2="6.85216" y2="38.322" gradientUnits="userSpaceOnUse">
<stop stop-color="#5EC5ED"/>
<stop offset="0.25" stop-color="#3DB7E3"/>
<stop offset="0.57" stop-color="#1CA8D9"/>
<stop offset="0.83" stop-color="#07A0D3"/>
<stop offset="1" stop-color="#009DD1"/>
</linearGradient>
<linearGradient id="paint2_linear_49_9102" x1="32.1895" y1="14.2812" x2="14.1528" y2="15.5552" gradientUnits="userSpaceOnUse">
<stop stop-color="#5EC5ED"/>
<stop offset="0.25" stop-color="#3DB7E3"/>
<stop offset="0.57" stop-color="#1CA8D9"/>
<stop offset="0.83" stop-color="#07A0D3"/>
<stop offset="1" stop-color="#009DD1"/>
</linearGradient>
<linearGradient id="paint3_linear_49_9102" x1="9.562" y1="19.7281" x2="28.4582" y2="19.7281" gradientUnits="userSpaceOnUse">
<stop stop-color="#1FA22E"/>
<stop offset="0.21" stop-color="#149930"/>
<stop offset="0.65" stop-color="#058C34"/>
<stop offset="1" stop-color="#008836"/>
</linearGradient>
<linearGradient id="paint4_linear_49_9102" x1="9.2858" y1="20.4245" x2="28.2015" y2="20.4245" gradientUnits="userSpaceOnUse">
<stop stop-color="#1FA22E"/>
<stop offset="0.21" stop-color="#149930"/>
<stop offset="0.65" stop-color="#058C34"/>
<stop offset="1" stop-color="#008836"/>
</linearGradient>
<linearGradient id="paint5_linear_49_9102" x1="9.56335" y1="20.5756" x2="28.4597" y2="20.5756" gradientUnits="userSpaceOnUse">
<stop stop-color="#1FA22E"/>
<stop offset="0.21" stop-color="#149930"/>
<stop offset="0.65" stop-color="#058C34"/>
<stop offset="1" stop-color="#008836"/>
</linearGradient>
<linearGradient id="paint6_linear_49_9102" x1="9.53049" y1="20.5798" x2="28.4267" y2="20.5798" gradientUnits="userSpaceOnUse">
<stop stop-color="#1FA22E"/>
<stop offset="0.21" stop-color="#149930"/>
<stop offset="0.65" stop-color="#058C34"/>
<stop offset="1" stop-color="#008836"/>
</linearGradient>
<clipPath id="clip0_49_9102">
<rect width="30.4" height="32" fill="white" transform="translate(0.932007)"/>
</clipPath>
<clipPath id="clip1_49_9102">
<rect width="30.4" height="32" fill="white" transform="translate(0.932007)"/>
</clipPath>
<clipPath id="clip2_49_9102">
<rect width="30.4" height="32" fill="white" transform="translate(0.932007)"/>
</clipPath>
</defs>
</svg>
